<?xml version="1.0" encoding="utf-8" standalone="no"?>
<!DOCTYPE svg PUBLIC "-//W3C//DTD SVG 1.1//EN"
  "http://www.w3.org/Graphics/SVG/1.1/DTD/svg11.dtd">
<svg xmlns:xlink="http://www.w3.org/1999/xlink" width="856.655625pt" height="333.873437pt" viewBox="0 0 856.655625 333.873437" xmlns="http://www.w3.org/2000/svg" version="1.1">
 <metadata>
  <rdf:RDF xmlns:dc="http://purl.org/dc/elements/1.1/" xmlns:cc="http://creativecommons.org/ns#" xmlns:rdf="http://www.w3.org/1999/02/22-rdf-syntax-ns#">
   <cc:Work>
    <dc:type rdf:resource="http://purl.org/dc/dcmitype/StillImage"/>
    <dc:date>2026-06-23T02:44:00.085475</dc:date>
    <dc:format>image/svg+xml</dc:format>
    <dc:creator>
     <cc:Agent>
      <dc:title>Matplotlib v3.10.9, https://matplotlib.org/</dc:title>
     </cc:Agent>
    </dc:creator>
   </cc:Work>
  </rdf:RDF>
 </metadata>
 <defs>
  <style type="text/css">*{stroke-linejoin: round; stroke-linecap: butt}</style>
 </defs>
 <g id="figure_1">
  <g id="patch_1">
   <path d="M 0 333.873437 
L 856.655625 333.873437 
L 856.655625 -0 
L 0 -0 
z
" style="fill: #ffffff"/>
  </g>
  <g id="axes_1">
   <g id="patch_2">
    <path d="M 40.600625 298.110625 
L 422.587198 298.110625 
L 422.587198 64.34 
L 40.600625 64.34 
z
" style="fill: #ffffff"/>
   </g>
   <g id="matplotlib.axis_1">
    <g id="xtick_1">
     <g id="line2d_1">
      <path d="M 47.946521 298.110625 
L 47.946521 64.34 
" clip-path="url(#p493d0d6ef2)" style="fill: none; stroke: #b0b0b0; stroke-opacity: 0.2; stroke-width: 0.8; stroke-linecap: square"/>
     </g>
     <g id="line2d_2">
      <defs>
       <path id="m7c0f66793b" d="M 0 0 
L 0 3.5 
" style="stroke: #000000; stroke-width: 0.8"/>
      </defs>
      <g>
       <use xlink:href="#m7c0f66793b" x="47.946521" y="298.110625" style="stroke: #000000; stroke-width: 0.8"/>
      </g>
     </g>
     <g id="text_1">
      <text style="font-size: 8px; font-family: 'DejaVu Serif', 'Bitstream Vera Serif', 'Computer Modern Roman', 'New Century Schoolbook', 'Century Schoolbook L', 'Utopia', 'ITC Bookman', 'Bookman', 'Nimbus Roman No9 L', 'Times New Roman', 'Times', 'Palatino', 'Charter', serif; text-anchor: middle" x="47.946521" y="311.189375" transform="rotate(-0 47.946521 311.189375)">0.0</text>
     </g>
    </g>
    <g id="xtick_2">
     <g id="line2d_3">
      <path d="M 121.405477 298.110625 
L 121.405477 64.34 
" clip-path="url(#p493d0d6ef2)" style="fill: none; stroke: #b0b0b0; stroke-opacity: 0.2; stroke-width: 0.8; stroke-linecap: square"/>
     </g>
     <g id="line2d_4">
      <g>
       <use xlink:href="#m7c0f66793b" x="121.405477" y="298.110625" style="stroke: #000000; stroke-width: 0.8"/>
      </g>
     </g>
     <g id="text_2">
      <text style="font-size: 8px; font-family: 'DejaVu Serif', 'Bitstream Vera Serif', 'Computer Modern Roman', 'New Century Schoolbook', 'Century Schoolbook L', 'Utopia', 'ITC Bookman', 'Bookman', 'Nimbus Roman No9 L', 'Times New Roman', 'Times', 'Palatino', 'Charter', serif; text-anchor: middle" x="121.405477" y="311.189375" transform="rotate(-0 121.405477 311.189375)">0.2</text>
     </g>
    </g>
    <g id="xtick_3">
     <g id="line2d_5">
      <path d="M 194.864433 298.110625 
L 194.864433 64.34 
" clip-path="url(#p493d0d6ef2)" style="fill: none; stroke: #b0b0b0; stroke-opacity: 0.2; stroke-width: 0.8; stroke-linecap: square"/>
     </g>
     <g id="line2d_6">
      <g>
       <use xlink:href="#m7c0f66793b" x="194.864433" y="298.110625" style="stroke: #000000; stroke-width: 0.8"/>
      </g>
     </g>
     <g id="text_3">
      <text style="font-size: 8px; font-family: 'DejaVu Serif', 'Bitstream Vera Serif', 'Computer Modern Roman', 'New Century Schoolbook', 'Century Schoolbook L', 'Utopia', 'ITC Bookman', 'Bookman', 'Nimbus Roman No9 L', 'Times New Roman', 'Times', 'Palatino', 'Charter', serif; text-anchor: middle" x="194.864433" y="311.189375" transform="rotate(-0 194.864433 311.189375)">0.4</text>
     </g>
    </g>
    <g id="xtick_4">
     <g id="line2d_7">
      <path d="M 268.32339 298.110625 
L 268.32339 64.34 
" clip-path="url(#p493d0d6ef2)" style="fill: none; stroke: #b0b0b0; stroke-opacity: 0.2; stroke-width: 0.8; stroke-linecap: square"/>
     </g>
     <g id="line2d_8">
      <g>
       <use xlink:href="#m7c0f66793b" x="268.32339" y="298.110625" style="stroke: #000000; stroke-width: 0.8"/>
      </g>
     </g>
     <g id="text_4">
      <text style="font-size: 8px; font-family: 'DejaVu Serif', 'Bitstream Vera Serif', 'Computer Modern Roman', 'New Century Schoolbook', 'Century Schoolbook L', 'Utopia', 'ITC Bookman', 'Bookman', 'Nimbus Roman No9 L', 'Times New Roman', 'Times', 'Palatino', 'Charter', serif; text-anchor: middle" x="268.32339" y="311.189375" transform="rotate(-0 268.32339 311.189375)">0.6</text>
     </g>
    </g>
    <g id="xtick_5">
     <g id="line2d_9">
      <path d="M 341.782346 298.110625 
L 341.782346 64.34 
" clip-path="url(#p493d0d6ef2)" style="fill: none; stroke: #b0b0b0; stroke-opacity: 0.2; stroke-width: 0.8; stroke-linecap: square"/>
     </g>
     <g id="line2d_10">
      <g>
       <use xlink:href="#m7c0f66793b" x="341.782346" y="298.110625" style="stroke: #000000; stroke-width: 0.8"/>
      </g>
     </g>
     <g id="text_5">
      <text style="font-size: 8px; font-family: 'DejaVu Serif', 'Bitstream Vera Serif', 'Computer Modern Roman', 'New Century Schoolbook', 'Century Schoolbook L', 'Utopia', 'ITC Bookman', 'Bookman', 'Nimbus Roman No9 L', 'Times New Roman', 'Times', 'Palatino', 'Charter', serif; text-anchor: middle" x="341.782346" y="311.189375" transform="rotate(-0 341.782346 311.189375)">0.8</text>
     </g>
    </g>
    <g id="xtick_6">
     <g id="line2d_11">
      <path d="M 415.241303 298.110625 
L 415.241303 64.34 
" clip-path="url(#p493d0d6ef2)" style="fill: none; stroke: #b0b0b0; stroke-opacity: 0.2; stroke-width: 0.8; stroke-linecap: square"/>
     </g>
     <g id="line2d_12">
      <g>
       <use xlink:href="#m7c0f66793b" x="415.241303" y="298.110625" style="stroke: #000000; stroke-width: 0.8"/>
      </g>
     </g>
     <g id="text_6">
      <text style="font-size: 8px; font-family: 'DejaVu Serif', 'Bitstream Vera Serif', 'Computer Modern Roman', 'New Century Schoolbook', 'Century Schoolbook L', 'Utopia', 'ITC Bookman', 'Bookman', 'Nimbus Roman No9 L', 'Times New Roman', 'Times', 'Palatino', 'Charter', serif; text-anchor: middle" x="415.241303" y="311.189375" transform="rotate(-0 415.241303 311.189375)">1.0</text>
     </g>
    </g>
    <g id="text_7">
     <text style="font-size: 10px; font-family: 'DejaVu Serif', 'Bitstream Vera Serif', 'Computer Modern Roman', 'New Century Schoolbook', 'Century Schoolbook L', 'Utopia', 'ITC Bookman', 'Bookman', 'Nimbus Roman No9 L', 'Times New Roman', 'Times', 'Palatino', 'Charter', serif; text-anchor: middle" x="231.593912" y="324.451562" transform="rotate(-0 231.593912 324.451562)">Recall (Sensitivity)</text>
    </g>
   </g>
   <g id="matplotlib.axis_2">
    <g id="ytick_1">
     <g id="line2d_13">
      <path d="M 40.600625 293.615036 
L 422.587198 293.615036 
" clip-path="url(#p493d0d6ef2)" style="fill: none; stroke: #b0b0b0; stroke-opacity: 0.2; stroke-width: 0.8; stroke-linecap: square"/>
     </g>
     <g id="line2d_14">
      <defs>
       <path id="m5bd5d58a4f" d="M 0 0 
L -3.5 0 
" style="stroke: #000000; stroke-width: 0.8"/>
      </defs>
      <g>
       <use xlink:href="#m5bd5d58a4f" x="40.600625" y="293.615036" style="stroke: #000000; stroke-width: 0.8"/>
      </g>
     </g>
     <g id="text_8">
      <text style="font-size: 8px; font-family: 'DejaVu Serif', 'Bitstream Vera Serif', 'Computer Modern Roman', 'New Century Schoolbook', 'Century Schoolbook L', 'Utopia', 'ITC Bookman', 'Bookman', 'Nimbus Roman No9 L', 'Times New Roman', 'Times', 'Palatino', 'Charter', serif; text-anchor: end" x="33.600625" y="296.654411" transform="rotate(-0 33.600625 296.654411)">0.0</text>
     </g>
    </g>
    <g id="ytick_2">
     <g id="line2d_15">
      <path d="M 40.600625 248.659147 
L 422.587198 248.659147 
" clip-path="url(#p493d0d6ef2)" style="fill: none; stroke: #b0b0b0; stroke-opacity: 0.2; stroke-width: 0.8; stroke-linecap: square"/>
     </g>
     <g id="line2d_16">
      <g>
       <use xlink:href="#m5bd5d58a4f" x="40.600625" y="248.659147" style="stroke: #000000; stroke-width: 0.8"/>
      </g>
     </g>
     <g id="text_9">
      <text style="font-size: 8px; font-family: 'DejaVu Serif', 'Bitstream Vera Serif', 'Computer Modern Roman', 'New Century Schoolbook', 'Century Schoolbook L', 'Utopia', 'ITC Bookman', 'Bookman', 'Nimbus Roman No9 L', 'Times New Roman', 'Times', 'Palatino', 'Charter', serif; text-anchor: end" x="33.600625" y="251.698522" transform="rotate(-0 33.600625 251.698522)">0.2</text>
     </g>
    </g>
    <g id="ytick_3">
     <g id="line2d_17">
      <path d="M 40.600625 203.703257 
L 422.587198 203.703257 
" clip-path="url(#p493d0d6ef2)" style="fill: none; stroke: #b0b0b0; stroke-opacity: 0.2; stroke-width: 0.8; stroke-linecap: square"/>
     </g>
     <g id="line2d_18">
      <g>
       <use xlink:href="#m5bd5d58a4f" x="40.600625" y="203.703257" style="stroke: #000000; stroke-width: 0.8"/>
      </g>
     </g>
     <g id="text_10">
      <text style="font-size: 8px; font-family: 'DejaVu Serif', 'Bitstream Vera Serif', 'Computer Modern Roman', 'New Century Schoolbook', 'Century Schoolbook L', 'Utopia', 'ITC Bookman', 'Bookman', 'Nimbus Roman No9 L', 'Times New Roman', 'Times', 'Palatino', 'Charter', serif; text-anchor: end" x="33.600625" y="206.742632" transform="rotate(-0 33.600625 206.742632)">0.4</text>
     </g>
    </g>
    <g id="ytick_4">
     <g id="line2d_19">
      <path d="M 40.600625 158.747368 
L 422.587198 158.747368 
" clip-path="url(#p493d0d6ef2)" style="fill: none; stroke: #b0b0b0; stroke-opacity: 0.2; stroke-width: 0.8; stroke-linecap: square"/>
     </g>
     <g id="line2d_20">
      <g>
       <use xlink:href="#m5bd5d58a4f" x="40.600625" y="158.747368" style="stroke: #000000; stroke-width: 0.8"/>
      </g>
     </g>
     <g id="text_11">
      <text style="font-size: 8px; font-family: 'DejaVu Serif', 'Bitstream Vera Serif', 'Computer Modern Roman', 'New Century Schoolbook', 'Century Schoolbook L', 'Utopia', 'ITC Bookman', 'Bookman', 'Nimbus Roman No9 L', 'Times New Roman', 'Times', 'Palatino', 'Charter', serif; text-anchor: end" x="33.600625" y="161.786743" transform="rotate(-0 33.600625 161.786743)">0.6</text>
     </g>
    </g>
    <g id="ytick_5">
     <g id="line2d_21">
      <path d="M 40.600625 113.791478 
L 422.587198 113.791478 
" clip-path="url(#p493d0d6ef2)" style="fill: none; stroke: #b0b0b0; stroke-opacity: 0.2; stroke-width: 0.8; stroke-linecap: square"/>
     </g>
     <g id="line2d_22">
      <g>
       <use xlink:href="#m5bd5d58a4f" x="40.600625" y="113.791478" style="stroke: #000000; stroke-width: 0.8"/>
      </g>
     </g>
     <g id="text_12">
      <text style="font-size: 8px; font-family: 'DejaVu Serif', 'Bitstream Vera Serif', 'Computer Modern Roman', 'New Century Schoolbook', 'Century Schoolbook L', 'Utopia', 'ITC Bookman', 'Bookman', 'Nimbus Roman No9 L', 'Times New Roman', 'Times', 'Palatino', 'Charter', serif; text-anchor: end" x="33.600625" y="116.830853" transform="rotate(-0 33.600625 116.830853)">0.8</text>
     </g>
    </g>
    <g id="ytick_6">
     <g id="line2d_23">
      <path d="M 40.600625 68.835589 
L 422.587198 68.835589 
" clip-path="url(#p493d0d6ef2)" style="fill: none; stroke: #b0b0b0; stroke-opacity: 0.2; stroke-width: 0.8; stroke-linecap: square"/>
     </g>
     <g id="line2d_24">
      <g>
       <use xlink:href="#m5bd5d58a4f" x="40.600625" y="68.835589" style="stroke: #000000; stroke-width: 0.8"/>
      </g>
     </g>
     <g id="text_13">
      <text style="font-size: 8px; font-family: 'DejaVu Serif', 'Bitstream Vera Serif', 'Computer Modern Roman', 'New Century Schoolbook', 'Century Schoolbook L', 'Utopia', 'ITC Bookman', 'Bookman', 'Nimbus Roman No9 L', 'Times New Roman', 'Times', 'Palatino', 'Charter', serif; text-anchor: end" x="33.600625" y="71.874964" transform="rotate(-0 33.600625 71.874964)">1.0</text>
     </g>
    </g>
    <g id="text_14">
     <text style="font-size: 10px; font-family: 'DejaVu Serif', 'Bitstream Vera Serif', 'Computer Modern Roman', 'New Century Schoolbook', 'Century Schoolbook L', 'Utopia', 'ITC Bookman', 'Bookman', 'Nimbus Roman No9 L', 'Times New Roman', 'Times', 'Palatino', 'Charter', serif; text-anchor: middle" x="14.798438" y="181.225312" transform="rotate(-90 14.798438 181.225312)">Precision (PPV)</text>
    </g>
   </g>
   <g id="line2d_25">
    <path d="M 415.241303 203.703257 
L 396.876564 202.746749 
L 323.417607 199.956933 
L 139.770216 227.503434 
L 47.946521 293.615036 
L 47.946521 68.835589 
" clip-path="url(#p493d0d6ef2)" style="fill: none; stroke: #1f77b4; stroke-width: 2; stroke-linecap: square"/>
   </g>
   <g id="line2d_26">
    <path d="M 40.600625 203.703257 
L 422.587198 203.703257 
" clip-path="url(#p493d0d6ef2)" style="fill: none; stroke-dasharray: 0.8,1.32; stroke-dashoffset: 0; stroke: #7f7f7f; stroke-opacity: 0.6; stroke-width: 0.8"/>
   </g>
   <g id="patch_3">
    <path d="M 40.600625 298.110625 
L 40.600625 64.34 
" style="fill: none; stroke: #000000; stroke-width: 0.8; stroke-linejoin: miter; stroke-linecap: square"/>
   </g>
   <g id="patch_4">
    <path d="M 422.587198 298.110625 
L 422.587198 64.34 
" style="fill: none; stroke: #000000; stroke-width: 0.8; stroke-linejoin: miter; stroke-linecap: square"/>
   </g>
   <g id="patch_5">
    <path d="M 40.600625 298.110625 
L 422.587198 298.110625 
" style="fill: none; stroke: #000000; stroke-width: 0.8; stroke-linejoin: miter; stroke-linecap: square"/>
   </g>
   <g id="patch_6">
    <path d="M 40.600625 64.34 
L 422.587198 64.34 
" style="fill: none; stroke: #000000; stroke-width: 0.8; stroke-linejoin: miter; stroke-linecap: square"/>
   </g>
   <g id="text_15">
    <text style="font-weight: 700; font-size: 11px; font-family: 'DejaVu Serif', 'Bitstream Vera Serif', 'Computer Modern Roman', 'New Century Schoolbook', 'Century Schoolbook L', 'Utopia', 'ITC Bookman', 'Bookman', 'Nimbus Roman No9 L', 'Times New Roman', 'Times', 'Palatino', 'Charter', serif; text-anchor: middle" x="231.593912" y="56.34" transform="rotate(-0 231.593912 56.34)">Precision-Recall Curve</text>
   </g>
   <g id="legend_1">
    <g id="patch_7">
     <path d="M 296.917198 94.225 
L 416.987198 94.225 
Q 418.587198 94.225 418.587198 92.625 
L 418.587198 69.94 
Q 418.587198 68.34 416.987198 68.34 
L 296.917198 68.34 
Q 295.317198 68.34 295.317198 69.94 
L 295.317198 92.625 
Q 295.317198 94.225 296.917198 94.225 
z
" style="fill: #ffffff; opacity: 0.85; stroke: #7f7f7f; stroke-linejoin: miter"/>
    </g>
    <g id="line2d_27">
     <path d="M 298.517198 74.81875 
L 306.517198 74.81875 
L 314.517198 74.81875 
" style="fill: none; stroke: #1f77b4; stroke-width: 2; stroke-linecap: square"/>
    </g>
    <g id="text_16">
     <text style="font-size: 8px; font-family: 'DejaVu Serif', 'Bitstream Vera Serif', 'Computer Modern Roman', 'New Century Schoolbook', 'Century Schoolbook L', 'Utopia', 'ITC Bookman', 'Bookman', 'Nimbus Roman No9 L', 'Times New Roman', 'Times', 'Palatino', 'Charter', serif; text-anchor: start" x="320.917198" y="77.61875" transform="rotate(-0 320.917198 77.61875)">Ensemble (AP = 0.383)</text>
    </g>
    <g id="line2d_28">
     <path d="M 298.517198 86.56125 
L 306.517198 86.56125 
L 314.517198 86.56125 
" style="fill: none; stroke-dasharray: 0.8,1.32; stroke-dashoffset: 0; stroke: #7f7f7f; stroke-opacity: 0.6; stroke-width: 0.8"/>
    </g>
    <g id="text_17">
     <text style="font-size: 8px; font-family: 'DejaVu Serif', 'Bitstream Vera Serif', 'Computer Modern Roman', 'New Century Schoolbook', 'Century Schoolbook L', 'Utopia', 'ITC Bookman', 'Bookman', 'Nimbus Roman No9 L', 'Times New Roman', 'Times', 'Palatino', 'Charter', serif; text-anchor: start" x="320.917198" y="89.36125" transform="rotate(-0 320.917198 89.36125)">No-skill (AP = 0.400)</text>
    </g>
   </g>
  </g>
  <g id="axes_2">
   <g id="patch_8">
    <path d="M 467.469052 298.110625 
L 849.455625 298.110625 
L 849.455625 64.34 
L 467.469052 64.34 
z
" style="fill: #ffffff"/>
   </g>
   <g id="matplotlib.axis_3">
    <g id="xtick_7">
     <g id="line2d_29">
      <path d="M 484.832078 298.110625 
L 484.832078 64.34 
" clip-path="url(#pb55ba93d87)" style="fill: none; stroke: #b0b0b0; stroke-opacity: 0.2; stroke-width: 0.8; stroke-linecap: square"/>
     </g>
     <g id="line2d_30">
      <g>
       <use xlink:href="#m7c0f66793b" x="484.832078" y="298.110625" style="stroke: #000000; stroke-width: 0.8"/>
      </g>
     </g>
     <g id="text_18">
      <text style="font-size: 8px; font-family: 'DejaVu Serif', 'Bitstream Vera Serif', 'Computer Modern Roman', 'New Century Schoolbook', 'Century Schoolbook L', 'Utopia', 'ITC Bookman', 'Bookman', 'Nimbus Roman No9 L', 'Times New Roman', 'Times', 'Palatino', 'Charter', serif; text-anchor: middle" x="484.832078" y="311.189375" transform="rotate(-0 484.832078 311.189375)">0.00</text>
     </g>
    </g>
    <g id="xtick_8">
     <g id="line2d_31">
      <path d="M 562.001082 298.110625 
L 562.001082 64.34 
" clip-path="url(#pb55ba93d87)" style="fill: none; stroke: #b0b0b0; stroke-opacity: 0.2; stroke-width: 0.8; stroke-linecap: square"/>
     </g>
     <g id="line2d_32">
      <g>
       <use xlink:href="#m7c0f66793b" x="562.001082" y="298.110625" style="stroke: #000000; stroke-width: 0.8"/>
      </g>
     </g>
     <g id="text_19">
      <text style="font-size: 8px; font-family: 'DejaVu Serif', 'Bitstream Vera Serif', 'Computer Modern Roman', 'New Century Schoolbook', 'Century Schoolbook L', 'Utopia', 'ITC Bookman', 'Bookman', 'Nimbus Roman No9 L', 'Times New Roman', 'Times', 'Palatino', 'Charter', serif; text-anchor: middle" x="562.001082" y="311.189375" transform="rotate(-0 562.001082 311.189375)">0.02</text>
     </g>
    </g>
    <g id="xtick_9">
     <g id="line2d_33">
      <path d="M 639.170087 298.110625 
L 639.170087 64.34 
" clip-path="url(#pb55ba93d87)" style="fill: none; stroke: #b0b0b0; stroke-opacity: 0.2; stroke-width: 0.8; stroke-linecap: square"/>
     </g>
     <g id="line2d_34">
      <g>
       <use xlink:href="#m7c0f66793b" x="639.170087" y="298.110625" style="stroke: #000000; stroke-width: 0.8"/>
      </g>
     </g>
     <g id="text_20">
      <text style="font-size: 8px; font-family: 'DejaVu Serif', 'Bitstream Vera Serif', 'Computer Modern Roman', 'New Century Schoolbook', 'Century Schoolbook L', 'Utopia', 'ITC Bookman', 'Bookman', 'Nimbus Roman No9 L', 'Times New Roman', 'Times', 'Palatino', 'Charter', serif; text-anchor: middle" x="639.170087" y="311.189375" transform="rotate(-0 639.170087 311.189375)">0.04</text>
     </g>
    </g>
    <g id="xtick_10">
     <g id="line2d_35">
      <path d="M 716.339092 298.110625 
L 716.339092 64.34 
" clip-path="url(#pb55ba93d87)" style="fill: none; stroke: #b0b0b0; stroke-opacity: 0.2; stroke-width: 0.8; stroke-linecap: square"/>
     </g>
     <g id="line2d_36">
      <g>
       <use xlink:href="#m7c0f66793b" x="716.339092" y="298.110625" style="stroke: #000000; stroke-width: 0.8"/>
      </g>
     </g>
     <g id="text_21">
      <text style="font-size: 8px; font-family: 'DejaVu Serif', 'Bitstream Vera Serif', 'Computer Modern Roman', 'New Century Schoolbook', 'Century Schoolbook L', 'Utopia', 'ITC Bookman', 'Bookman', 'Nimbus Roman No9 L', 'Times New Roman', 'Times', 'Palatino', 'Charter', serif; text-anchor: middle" x="716.339092" y="311.189375" transform="rotate(-0 716.339092 311.189375)">0.06</text>
     </g>
    </g>
    <g id="xtick_11">
     <g id="line2d_37">
      <path d="M 793.508097 298.110625 
L 793.508097 64.34 
" clip-path="url(#pb55ba93d87)" style="fill: none; stroke: #b0b0b0; stroke-opacity: 0.2; stroke-width: 0.8; stroke-linecap: square"/>
     </g>
     <g id="line2d_38">
      <g>
       <use xlink:href="#m7c0f66793b" x="793.508097" y="298.110625" style="stroke: #000000; stroke-width: 0.8"/>
      </g>
     </g>
     <g id="text_22">
      <text style="font-size: 8px; font-family: 'DejaVu Serif', 'Bitstream Vera Serif', 'Computer Modern Roman', 'New Century Schoolbook', 'Century Schoolbook L', 'Utopia', 'ITC Bookman', 'Bookman', 'Nimbus Roman No9 L', 'Times New Roman', 'Times', 'Palatino', 'Charter', serif; text-anchor: middle" x="793.508097" y="311.189375" transform="rotate(-0 793.508097 311.189375)">0.08</text>
     </g>
    </g>
    <g id="text_23">
     <text style="font-size: 10px; font-family: 'DejaVu Serif', 'Bitstream Vera Serif', 'Computer Modern Roman', 'New Century Schoolbook', 'Century Schoolbook L', 'Utopia', 'ITC Bookman', 'Bookman', 'Nimbus Roman No9 L', 'Times New Roman', 'Times', 'Palatino', 'Charter', serif; text-anchor: middle" x="658.462338" y="324.451562" transform="rotate(-0 658.462338 324.451562)">Voltage Deviation Threshold (p.u.)</text>
    </g>
   </g>
   <g id="matplotlib.axis_4">
    <g id="ytick_7">
     <g id="line2d_39">
      <path d="M 467.469052 287.484687 
L 849.455625 287.484687 
" clip-path="url(#pb55ba93d87)" style="fill: none; stroke: #b0b0b0; stroke-opacity: 0.2; stroke-width: 0.8; stroke-linecap: square"/>
     </g>
     <g id="line2d_40">
      <g>
       <use xlink:href="#m5bd5d58a4f" x="467.469052" y="287.484687" style="stroke: #000000; stroke-width: 0.8"/>
      </g>
     </g>
     <g id="text_24">
      <text style="font-size: 8px; font-family: 'DejaVu Serif', 'Bitstream Vera Serif', 'Computer Modern Roman', 'New Century Schoolbook', 'Century Schoolbook L', 'Utopia', 'ITC Bookman', 'Bookman', 'Nimbus Roman No9 L', 'Times New Roman', 'Times', 'Palatino', 'Charter', serif; text-anchor: end" x="460.469052" y="290.524062" transform="rotate(-0 460.469052 290.524062)">0.0</text>
     </g>
    </g>
    <g id="ytick_8">
     <g id="line2d_41">
      <path d="M 467.469052 244.980937 
L 849.455625 244.980937 
" clip-path="url(#pb55ba93d87)" style="fill: none; stroke: #b0b0b0; stroke-opacity: 0.2; stroke-width: 0.8; stroke-linecap: square"/>
     </g>
     <g id="line2d_42">
      <g>
       <use xlink:href="#m5bd5d58a4f" x="467.469052" y="244.980937" style="stroke: #000000; stroke-width: 0.8"/>
      </g>
     </g>
     <g id="text_25">
      <text style="font-size: 8px; font-family: 'DejaVu Serif', 'Bitstream Vera Serif', 'Computer Modern Roman', 'New Century Schoolbook', 'Century Schoolbook L', 'Utopia', 'ITC Bookman', 'Bookman', 'Nimbus Roman No9 L', 'Times New Roman', 'Times', 'Palatino', 'Charter', serif; text-anchor: end" x="460.469052" y="248.020312" transform="rotate(-0 460.469052 248.020312)">0.2</text>
     </g>
    </g>
    <g id="ytick_9">
     <g id="line2d_43">
      <path d="M 467.469052 202.477187 
L 849.455625 202.477187 
" clip-path="url(#pb55ba93d87)" style="fill: none; stroke: #b0b0b0; stroke-opacity: 0.2; stroke-width: 0.8; stroke-linecap: square"/>
     </g>
     <g id="line2d_44">
      <g>
       <use xlink:href="#m5bd5d58a4f" x="467.469052" y="202.477187" style="stroke: #000000; stroke-width: 0.8"/>
      </g>
     </g>
     <g id="text_26">
      <text style="font-size: 8px; font-family: 'DejaVu Serif', 'Bitstream Vera Serif', 'Computer Modern Roman', 'New Century Schoolbook', 'Century Schoolbook L', 'Utopia', 'ITC Bookman', 'Bookman', 'Nimbus Roman No9 L', 'Times New Roman', 'Times', 'Palatino', 'Charter', serif; text-anchor: end" x="460.469052" y="205.516562" transform="rotate(-0 460.469052 205.516562)">0.4</text>
     </g>
    </g>
    <g id="ytick_10">
     <g id="line2d_45">
      <path d="M 467.469052 159.973437 
L 849.455625 159.973437 
" clip-path="url(#pb55ba93d87)" style="fill: none; stroke: #b0b0b0; stroke-opacity: 0.2; stroke-width: 0.8; stroke-linecap: square"/>
     </g>
     <g id="line2d_46">
      <g>
       <use xlink:href="#m5bd5d58a4f" x="467.469052" y="159.973437" style="stroke: #000000; stroke-width: 0.8"/>
      </g>
     </g>
     <g id="text_27">
      <text style="font-size: 8px; font-family: 'DejaVu Serif', 'Bitstream Vera Serif', 'Computer Modern Roman', 'New Century Schoolbook', 'Century Schoolbook L', 'Utopia', 'ITC Bookman', 'Bookman', 'Nimbus Roman No9 L', 'Times New Roman', 'Times', 'Palatino', 'Charter', serif; text-anchor: end" x="460.469052" y="163.012812" transform="rotate(-0 460.469052 163.012812)">0.6</text>
     </g>
    </g>
    <g id="ytick_11">
     <g id="line2d_47">
      <path d="M 467.469052 117.469687 
L 849.455625 117.469687 
" clip-path="url(#pb55ba93d87)" style="fill: none; stroke: #b0b0b0; stroke-opacity: 0.2; stroke-width: 0.8; stroke-linecap: square"/>
     </g>
     <g id="line2d_48">
      <g>
       <use xlink:href="#m5bd5d58a4f" x="467.469052" y="117.469687" style="stroke: #000000; stroke-width: 0.8"/>
      </g>
     </g>
     <g id="text_28">
      <text style="font-size: 8px; font-family: 'DejaVu Serif', 'Bitstream Vera Serif', 'Computer Modern Roman', 'New Century Schoolbook', 'Century Schoolbook L', 'Utopia', 'ITC Bookman', 'Bookman', 'Nimbus Roman No9 L', 'Times New Roman', 'Times', 'Palatino', 'Charter', serif; text-anchor: end" x="460.469052" y="120.509062" transform="rotate(-0 460.469052 120.509062)">0.8</text>
     </g>
    </g>
    <g id="ytick_12">
     <g id="line2d_49">
      <path d="M 467.469052 74.965937 
L 849.455625 74.965937 
" clip-path="url(#pb55ba93d87)" style="fill: none; stroke: #b0b0b0; stroke-opacity: 0.2; stroke-width: 0.8; stroke-linecap: square"/>
     </g>
     <g id="line2d_50">
      <g>
       <use xlink:href="#m5bd5d58a4f" x="467.469052" y="74.965937" style="stroke: #000000; stroke-width: 0.8"/>
      </g>
     </g>
     <g id="text_29">
      <text style="font-size: 8px; font-family: 'DejaVu Serif', 'Bitstream Vera Serif', 'Computer Modern Roman', 'New Century Schoolbook', 'Century Schoolbook L', 'Utopia', 'ITC Bookman', 'Bookman', 'Nimbus Roman No9 L', 'Times New Roman', 'Times', 'Palatino', 'Charter', serif; text-anchor: end" x="460.469052" y="78.005312" transform="rotate(-0 460.469052 78.005312)">1.0</text>
     </g>
    </g>
    <g id="text_30">
     <text style="font-size: 10px; font-family: 'DejaVu Serif', 'Bitstream Vera Serif', 'Computer Modern Roman', 'New Century Schoolbook', 'Century Schoolbook L', 'Utopia', 'ITC Bookman', 'Bookman', 'Nimbus Roman No9 L', 'Times New Roman', 'Times', 'Palatino', 'Charter', serif; text-anchor: middle" x="441.666864" y="181.225312" transform="rotate(-90 441.666864 181.225312)">Rate</text>
    </g>
   </g>
   <g id="line2d_51">
    <path d="M 484.832078 74.965937 
L 488.33976 74.965937 
L 491.847442 74.965937 
L 495.355124 74.965937 
L 498.862806 74.965937 
L 502.370488 74.965937 
L 505.87817 74.965937 
L 509.385852 74.965937 
L 512.893534 74.965937 
L 516.401216 74.965937 
L 519.908898 74.965937 
L 523.41658 74.965937 
L 526.924262 74.965937 
L 530.431944 74.965937 
L 533.939626 74.965937 
L 537.447308 74.965937 
L 540.95499 74.965937 
L 544.462672 74.965937 
L 547.970354 74.965937 
L 551.478036 74.965937 
L 554.985718 74.965937 
L 558.4934 74.965937 
L 562.001082 74.965937 
L 565.508764 74.965937 
L 569.016446 74.965937 
L 572.524128 74.965937 
L 576.031811 74.965937 
L 579.539493 74.965937 
L 583.047175 74.965937 
L 586.554857 74.965937 
L 590.062539 74.965937 
L 593.570221 74.965937 
L 597.077903 74.965937 
L 600.585585 74.965937 
L 604.093267 74.965937 
L 607.600949 74.965937 
L 611.108631 74.965937 
L 614.616313 74.965937 
L 618.123995 74.965937 
L 621.631677 74.965937 
L 625.139359 74.965937 
L 628.647041 74.965937 
L 632.154723 74.965937 
L 635.662405 74.965937 
L 639.170087 74.965937 
L 642.677769 74.965937 
L 646.185451 74.965937 
L 649.693133 74.965937 
L 653.200815 74.965937 
L 656.708497 74.965937 
L 660.216179 74.965937 
L 663.723861 74.965937 
L 667.231543 74.965937 
L 670.739225 74.965937 
L 674.246907 74.965937 
L 677.754589 74.965937 
L 681.262272 74.965937 
L 684.769954 74.965937 
L 688.277636 74.965937 
L 691.785318 74.965937 
L 695.293 74.965937 
L 698.800682 74.965937 
L 702.308364 74.965937 
L 705.816046 74.965937 
L 709.323728 74.965937 
L 712.83141 74.965937 
L 716.339092 74.965937 
L 719.846774 74.965937 
L 723.354456 74.965937 
L 726.862138 74.965937 
L 730.36982 74.965937 
L 733.877502 74.965937 
L 737.385184 74.965937 
L 740.892866 74.965937 
L 744.400548 74.965937 
L 747.90823 74.965937 
L 751.415912 74.965937 
L 754.923594 74.965937 
L 758.431276 74.965937 
L 761.938958 74.965937 
L 765.44664 74.965937 
L 768.954322 74.965937 
L 772.462004 74.965937 
L 775.969686 74.965937 
L 779.477368 74.965937 
L 782.98505 74.965937 
L 786.492733 74.965937 
L 790.000415 74.965937 
L 793.508097 74.965937 
L 797.015779 74.965937 
L 800.523461 74.965937 
L 804.031143 74.965937 
L 807.538825 74.965937 
L 811.046507 74.965937 
L 814.554189 74.965937 
L 818.061871 74.965937 
L 821.569553 74.965937 
L 825.077235 74.965937 
L 828.584917 74.965937 
L 832.092599 287.484687 
" clip-path="url(#pb55ba93d87)" style="fill: none; stroke: #2ca02c; stroke-width: 2; stroke-linecap: square"/>
   </g>
   <g id="line2d_52">
    <path d="M 484.832078 74.965937 
L 488.33976 74.965937 
L 491.847442 74.965937 
L 495.355124 74.965937 
L 498.862806 74.965937 
L 502.370488 74.965937 
L 505.87817 74.965937 
L 509.385852 74.965937 
L 512.893534 74.965937 
L 516.401216 74.965937 
L 519.908898 74.965937 
L 523.41658 74.965937 
L 526.924262 74.965937 
L 530.431944 74.965937 
L 533.939626 74.965937 
L 537.447308 74.965937 
L 540.95499 74.965937 
L 544.462672 74.965937 
L 547.970354 74.965937 
L 551.478036 74.965937 
L 554.985718 74.965937 
L 558.4934 74.965937 
L 562.001082 74.965937 
L 565.508764 74.965937 
L 569.016446 74.965937 
L 572.524128 74.965937 
L 576.031811 74.965937 
L 579.539493 74.965937 
L 583.047175 74.965937 
L 586.554857 74.965937 
L 590.062539 74.965937 
L 593.570221 74.965937 
L 597.077903 74.965937 
L 600.585585 74.965937 
L 604.093267 74.965937 
L 607.600949 74.965937 
L 611.108631 74.965937 
L 614.616313 74.965937 
L 618.123995 74.965937 
L 621.631677 74.965937 
L 625.139359 74.965937 
L 628.647041 74.965937 
L 632.154723 74.965937 
L 635.662405 74.965937 
L 639.170087 74.965937 
L 642.677769 74.965937 
L 646.185451 74.965937 
L 649.693133 74.965937 
L 653.200815 74.965937 
L 656.708497 74.965937 
L 660.216179 74.965937 
L 663.723861 74.965937 
L 667.231543 74.965937 
L 670.739225 74.965937 
L 674.246907 74.965937 
L 677.754589 74.965937 
L 681.262272 74.965937 
L 684.769954 74.965937 
L 688.277636 74.965937 
L 691.785318 74.965937 
L 695.293 74.965937 
L 698.800682 74.965937 
L 702.308364 74.965937 
L 705.816046 74.965937 
L 709.323728 74.965937 
L 712.83141 74.965937 
L 716.339092 74.965937 
L 719.846774 74.965937 
L 723.354456 74.965937 
L 726.862138 74.965937 
L 730.36982 74.965937 
L 733.877502 74.965937 
L 737.385184 74.965937 
L 740.892866 74.965937 
L 744.400548 74.965937 
L 747.90823 74.965937 
L 751.415912 74.965937 
L 754.923594 74.965937 
L 758.431276 74.965937 
L 761.938958 74.965937 
L 765.44664 74.965937 
L 768.954322 74.965937 
L 772.462004 74.965937 
L 775.969686 74.965937 
L 779.477368 74.965937 
L 782.98505 74.965937 
L 786.492733 74.965937 
L 790.000415 74.965937 
L 793.508097 74.965937 
L 797.015779 74.965937 
L 800.523461 74.965937 
L 804.031143 74.965937 
L 807.538825 74.965937 
L 811.046507 74.965937 
L 814.554189 74.965937 
L 818.061871 74.965937 
L 821.569553 74.965937 
L 825.077235 74.965937 
L 828.584917 74.965937 
L 832.092599 259.148854 
" clip-path="url(#pb55ba93d87)" style="fill: none; stroke-dasharray: 5.55,2.4; stroke-dashoffset: 0; stroke: #d62728; stroke-width: 1.5"/>
   </g>
   <g id="line2d_53">
    <path d="M 677.754589 298.110625 
L 677.754589 64.34 
" clip-path="url(#pb55ba93d87)" style="fill: none; stroke-dasharray: 0.8,1.32; stroke-dashoffset: 0; stroke: #9467bd; stroke-opacity: 0.6; stroke-width: 0.8"/>
   </g>
   <g id="patch_9">
    <path d="M 467.469052 298.110625 
L 467.469052 64.34 
" style="fill: none; stroke: #000000; stroke-width: 0.8; stroke-linejoin: miter; stroke-linecap: square"/>
   </g>
   <g id="patch_10">
    <path d="M 849.455625 298.110625 
L 849.455625 64.34 
" style="fill: none; stroke: #000000; stroke-width: 0.8; stroke-linejoin: miter; stroke-linecap: square"/>
   </g>
   <g id="patch_11">
    <path d="M 467.469052 298.110625 
L 849.455625 298.110625 
" style="fill: none; stroke: #000000; stroke-width: 0.8; stroke-linejoin: miter; stroke-linecap: square"/>
   </g>
   <g id="patch_12">
    <path d="M 467.469052 64.34 
L 849.455625 64.34 
" style="fill: none; stroke: #000000; stroke-width: 0.8; stroke-linejoin: miter; stroke-linecap: square"/>
   </g>
   <g id="patch_13">
    <path d="M 734.203862 91.159138 
Q 698.187702 83.276516 663.263724 75.632934 
" style="fill: none; opacity: 0.6; stroke: #2ca02c; stroke-linecap: round"/>
    <path d="M 665.699655 77.599209 
L 663.263724 75.632934 
L 666.298303 74.863953 
" style="fill: none; opacity: 0.6; stroke: #2ca02c; stroke-linecap: round"/>
   </g>
   <g id="text_31">
    <text style="font-weight: 700; font-size: 7px; font-family: 'DejaVu Serif', 'Bitstream Vera Serif', 'Computer Modern Roman', 'New Century Schoolbook', 'Century Schoolbook L', 'Utopia', 'ITC Bookman', 'Bookman', 'Nimbus Roman No9 L', 'Times New Roman', 'Times', 'Palatino', 'Charter', serif; fill: #2ca02c" transform="translate(737.385184 98.90575)">Operating Point</text>
    <text style="font-weight: 700; font-size: 7px; font-family: 'DejaVu Serif', 'Bitstream Vera Serif', 'Computer Modern Roman', 'New Century Schoolbook', 'Century Schoolbook L', 'Utopia', 'ITC Bookman', 'Bookman', 'Nimbus Roman No9 L', 'Times New Roman', 'Times', 'Palatino', 'Charter', serif; fill: #2ca02c" transform="translate(737.385184 106.84375)">TPR=1.00, FPR=1.00</text>
   </g>
   <g id="text_32">
    <text style="font-weight: 700; font-size: 11px; font-family: 'DejaVu Serif', 'Bitstream Vera Serif', 'Computer Modern Roman', 'New Century Schoolbook', 'Century Schoolbook L', 'Utopia', 'ITC Bookman', 'Bookman', 'Nimbus Roman No9 L', 'Times New Roman', 'Times', 'Palatino', 'Charter', serif; text-anchor: middle" x="658.462338" y="56.34" transform="rotate(-0 658.462338 56.34)">Detection Rate vs. Threshold</text>
   </g>
   <g id="PathCollection_1">
    <defs>
     <path id="ma0e85f442f" d="M 0 4.472136 
C 1.186024 4.472136 2.323632 4.000923 3.162278 3.162278 
C 4.000923 2.323632 4.472136 1.186024 4.472136 0 
C 4.472136 -1.186024 4.000923 -2.323632 3.162278 -3.162278 
C 2.323632 -4.000923 1.186024 -4.472136 0 -4.472136 
C -1.186024 -4.472136 -2.323632 -4.000923 -3.162278 -3.162278 
C -4.000923 -2.323632 -4.472136 -1.186024 -4.472136 0 
C -4.472136 1.186024 -4.000923 2.323632 -3.162278 3.162278 
C -2.323632 4.000923 -1.186024 4.472136 0 4.472136 
z
" style="stroke: #ffffff; stroke-linecap: round"/>
    </defs>
    <g clip-path="url(#pb55ba93d87)">
     <use xlink:href="#ma0e85f442f" x="660.216179" y="74.965937" style="fill: #2ca02c; stroke: #ffffff; stroke-linecap: round"/>
    </g>
   </g>
   <g id="legend_2">
    <g id="patch_14">
     <path d="M 473.069052 294.110625 
L 602.135302 294.110625 
Q 603.735302 294.110625 603.735302 292.510625 
L 603.735302 257.969375 
Q 603.735302 256.369375 602.135302 256.369375 
L 473.069052 256.369375 
Q 471.469052 256.369375 471.469052 257.969375 
L 471.469052 292.510625 
Q 471.469052 294.110625 473.069052 294.110625 
z
" style="fill: #ffffff; opacity: 0.85; stroke: #7f7f7f; stroke-linejoin: miter"/>
    </g>
    <g id="line2d_54">
     <path d="M 474.669052 262.848125 
L 482.669052 262.848125 
L 490.669052 262.848125 
" style="fill: none; stroke: #2ca02c; stroke-width: 2; stroke-linecap: square"/>
    </g>
    <g id="text_33">
     <text style="font-size: 8px; font-family: 'DejaVu Serif', 'Bitstream Vera Serif', 'Computer Modern Roman', 'New Century Schoolbook', 'Century Schoolbook L', 'Utopia', 'ITC Bookman', 'Bookman', 'Nimbus Roman No9 L', 'Times New Roman', 'Times', 'Palatino', 'Charter', serif; text-anchor: start" x="497.069052" y="265.648125" transform="rotate(-0 497.069052 265.648125)">Detection Rate (TPR)</text>
    </g>
    <g id="line2d_55">
     <path d="M 474.669052 274.590625 
L 482.669052 274.590625 
L 490.669052 274.590625 
" style="fill: none; stroke-dasharray: 5.55,2.4; stroke-dashoffset: 0; stroke: #d62728; stroke-width: 1.5"/>
    </g>
    <g id="text_34">
     <text style="font-size: 8px; font-family: 'DejaVu Serif', 'Bitstream Vera Serif', 'Computer Modern Roman', 'New Century Schoolbook', 'Century Schoolbook L', 'Utopia', 'ITC Bookman', 'Bookman', 'Nimbus Roman No9 L', 'Times New Roman', 'Times', 'Palatino', 'Charter', serif; text-anchor: start" x="497.069052" y="277.390625" transform="rotate(-0 497.069052 277.390625)">False Alarm Rate (FPR)</text>
    </g>
    <g id="line2d_56">
     <path d="M 474.669052 286.333125 
L 482.669052 286.333125 
L 490.669052 286.333125 
" style="fill: none; stroke-dasharray: 0.8,1.32; stroke-dashoffset: 0; stroke: #9467bd; stroke-opacity: 0.6; stroke-width: 0.8"/>
    </g>
    <g id="text_35">
     <text style="font-size: 8px; font-family: 'DejaVu Serif', 'Bitstream Vera Serif', 'Computer Modern Roman', 'New Century Schoolbook', 'Century Schoolbook L', 'Utopia', 'ITC Bookman', 'Bookman', 'Nimbus Roman No9 L', 'Times New Roman', 'Times', 'Palatino', 'Charter', serif; text-anchor: start" x="497.069052" y="289.133125" transform="rotate(-0 497.069052 289.133125)">Physics Bound (0.05 p.u.)</text>
    </g>
   </g>
  </g>
  <g id="text_36">
   <text style="font-weight: 700; font-size: 13px; font-family: 'DejaVu Serif', 'Bitstream Vera Serif', 'Computer Modern Roman', 'New Century Schoolbook', 'Century Schoolbook L', 'Utopia', 'ITC Bookman', 'Bookman', 'Nimbus Roman No9 L', 'Times New Roman', 'Times', 'Palatino', 'Charter', serif; text-anchor: middle" x="428.255625" y="17.077969" transform="rotate(-0 428.255625 17.077969)">Anomaly Detection Ensemble Performance — Precision-Recall and Threshold Analysis</text>
  </g>
 </g>
 <defs>
  <clipPath id="p493d0d6ef2">
   <rect x="40.600625" y="64.34" width="381.986573" height="233.770625"/>
  </clipPath>
  <clipPath id="pb55ba93d87">
   <rect x="467.469052" y="64.34" width="381.986573" height="233.770625"/>
  </clipPath>
 </defs>
</svg>
