<?xml version="1.0" encoding="UTF-8" standalone="no"?>
<!DOCTYPE svg PUBLIC "-//W3C//DTD SVG 1.1//EN"
 "http://www.w3.org/Graphics/SVG/1.1/DTD/svg11.dtd">
<!-- Generated by graphviz version 13.0.1 (20250615.1724)
 -->
<!-- Title: architecture Pages: 1 -->
<svg width="3892pt" height="2827pt"
 viewBox="0.00 0.00 3892.00 2827.00" xmlns="http://www.w3.org/2000/svg" xmlns:xlink="http://www.w3.org/1999/xlink">
<g id="graph0" class="graph" transform="scale(4.16667 4.16667) rotate(0) translate(36 642.5)">
<title>architecture</title>
<polygon fill="white" stroke="none" points="-36,36 -36,-642.5 898,-642.5 898,36 -36,36"/>
<g id="clust1" class="cluster">
<title>cluster_orch</title>
<path fill="white" stroke="#1a56db" stroke-dasharray="5,2" d="M20,-143C20,-143 200,-143 200,-143 206,-143 212,-149 212,-155 212,-155 212,-586.5 212,-586.5 212,-592.5 206,-598.5 200,-598.5 200,-598.5 20,-598.5 20,-598.5 14,-598.5 8,-592.5 8,-586.5 8,-586.5 8,-155 8,-155 8,-149 14,-143 20,-143"/>
<text xml:space="preserve" text-anchor="middle" x="110" y="-582.15" font-family="Times,serif" font-weight="bold" font-size="13.00" fill="#1a56db">dt&#45;orchestrator (FastAPI Server)</text>
</g>
<g id="clust2" class="cluster">
<title>cluster_dash</title>
<path fill="white" stroke="#059669" stroke-dasharray="5,2" d="M51,-8C51,-8 220,-8 220,-8 226,-8 232,-14 232,-20 232,-20 232,-92.5 232,-92.5 232,-98.5 226,-104.5 220,-104.5 220,-104.5 51,-104.5 51,-104.5 45,-104.5 39,-98.5 39,-92.5 39,-92.5 39,-20 39,-20 39,-14 45,-8 51,-8"/>
<text xml:space="preserve" text-anchor="middle" x="135.5" y="-88.15" font-family="Times,serif" font-weight="bold" font-size="13.00" fill="#059669">dt&#45;dashboard (React+Vite+D3)</text>
</g>
<g id="clust3" class="cluster">
<title>cluster_sim</title>
<path fill="white" stroke="#7c3aed" stroke-dasharray="5,2" d="M233,-248.5C233,-248.5 842,-248.5 842,-248.5 848,-248.5 854,-254.5 854,-260.5 854,-260.5 854,-311.5 854,-311.5 854,-317.5 848,-323.5 842,-323.5 842,-323.5 233,-323.5 233,-323.5 227,-323.5 221,-317.5 221,-311.5 221,-311.5 221,-260.5 221,-260.5 221,-254.5 227,-248.5 233,-248.5"/>
<text xml:space="preserve" text-anchor="middle" x="537.5" y="-307.15" font-family="Times,serif" font-weight="bold" font-size="13.00" fill="#7c3aed">Simulator Adapters</text>
</g>
<g id="clust4" class="cluster">
<title>cluster_ml</title>
<path fill="white" stroke="#dc2626" stroke-dasharray="5,2" d="M232,-143C232,-143 709,-143 709,-143 715,-143 721,-149 721,-155 721,-155 721,-211 721,-211 721,-217 715,-223 709,-223 709,-223 232,-223 232,-223 226,-223 220,-217 220,-211 220,-211 220,-155 220,-155 220,-149 226,-143 232,-143"/>
<text xml:space="preserve" text-anchor="middle" x="470.5" y="-206.65" font-family="Times,serif" font-weight="bold" font-size="13.00" fill="#dc2626">ML &amp; SCADA Layer</text>
</g>
<!-- boot -->
<g id="node1" class="node">
<title>boot</title>
<polygon fill="#e0e7ff" stroke="black" points="199.75,-567.5 116.25,-567.5 116.25,-526.5 199.75,-526.5 199.75,-567.5"/>
<text xml:space="preserve" text-anchor="middle" x="158" y="-550.2" font-family="Times New Roman,serif" font-size="14.00">Bootstrap</text>
<text xml:space="preserve" text-anchor="middle" x="158" y="-533.7" font-family="Times New Roman,serif" font-size="14.00">(Path Setup)</text>
</g>
<!-- tick -->
<g id="node2" class="node">
<title>tick</title>
<polygon fill="#e0e7ff" stroke="black" points="199,-481.5 117,-481.5 117,-440.5 199,-440.5 199,-481.5"/>
<text xml:space="preserve" text-anchor="middle" x="158" y="-464.2" font-family="Times New Roman,serif" font-size="14.00">Tick Loop</text>
<text xml:space="preserve" text-anchor="middle" x="158" y="-447.7" font-family="Times New Roman,serif" font-size="14.00">(asyncio 1s)</text>
</g>
<!-- boot&#45;&gt;tick -->
<g id="edge1" class="edge">
<title>boot&#45;&gt;tick</title>
<path fill="none" stroke="black" d="M158,-526.18C158,-526.18 158,-493.44 158,-493.44"/>
<polygon fill="black" stroke="black" points="161.5,-493.44 158,-483.44 154.5,-493.44 161.5,-493.44"/>
</g>
<!-- pf -->
<g id="node3" class="node">
<title>pf</title>
<polygon fill="#e0e7ff" stroke="black" points="203.5,-395.5 112.5,-395.5 112.5,-354.5 203.5,-354.5 203.5,-395.5"/>
<text xml:space="preserve" text-anchor="middle" x="158" y="-378.2" font-family="Times New Roman,serif" font-size="14.00">Powerflow</text>
<text xml:space="preserve" text-anchor="middle" x="158" y="-361.7" font-family="Times New Roman,serif" font-size="14.00">(pandapower)</text>
</g>
<!-- tick&#45;&gt;pf -->
<g id="edge2" class="edge">
<title>tick&#45;&gt;pf</title>
<path fill="none" stroke="black" d="M158,-440.18C158,-440.18 158,-407.44 158,-407.44"/>
<polygon fill="black" stroke="black" points="161.5,-407.44 158,-397.44 154.5,-407.44 161.5,-407.44"/>
</g>
<!-- ml_detect -->
<g id="node4" class="node">
<title>ml_detect</title>
<polygon fill="#e0e7ff" stroke="black" points="199.25,-295 70.75,-295 70.75,-254 199.25,-254 199.25,-295"/>
<text xml:space="preserve" text-anchor="middle" x="135" y="-277.7" font-family="Times New Roman,serif" font-size="14.00">ML Detection</text>
<text xml:space="preserve" text-anchor="middle" x="135" y="-261.2" font-family="Times New Roman,serif" font-size="14.00">(Physics+Ensemble)</text>
</g>
<!-- pf&#45;&gt;ml_detect -->
<g id="edge3" class="edge">
<title>pf&#45;&gt;ml_detect</title>
<path fill="none" stroke="black" d="M155.88,-354.18C155.88,-354.18 155.88,-306.81 155.88,-306.81"/>
<polygon fill="black" stroke="black" points="159.38,-306.81 155.88,-296.81 152.38,-306.81 159.38,-306.81"/>
</g>
<!-- pp -->
<g id="node7" class="node">
<title>pp</title>
<polygon fill="#ede9fe" stroke="black" points="359.38,-292.5 228.62,-292.5 228.62,-256.5 359.38,-256.5 359.38,-292.5"/>
<text xml:space="preserve" text-anchor="middle" x="294" y="-269.45" font-family="Times New Roman,serif" font-size="14.00">pandapower (Active)</text>
</g>
<!-- pf&#45;&gt;pp -->
<g id="edge6" class="edge">
<title>pf&#45;&gt;pp</title>
<path fill="none" stroke="#7c3aed" stroke-dasharray="5,2" d="M203.66,-368C243.17,-368 294,-368 294,-368 294,-368 294,-304.49 294,-304.49"/>
<polygon fill="#7c3aed" stroke="#7c3aed" points="297.5,-304.49 294,-294.49 290.5,-304.49 297.5,-304.49"/>
</g>
<!-- bescom -->
<g id="node8" class="node">
<title>bescom</title>
<polygon fill="#ede9fe" stroke="black" points="503.5,-292.5 388.5,-292.5 388.5,-256.5 503.5,-256.5 503.5,-292.5"/>
<text xml:space="preserve" text-anchor="middle" x="446" y="-269.45" font-family="Times New Roman,serif" font-size="14.00">BESCOM 50&#45;Bus</text>
</g>
<!-- pf&#45;&gt;bescom -->
<g id="edge7" class="edge">
<title>pf&#45;&gt;bescom</title>
<path fill="none" stroke="#7c3aed" stroke-dasharray="5,2" d="M203.95,-382C285.26,-382 446,-382 446,-382 446,-382 446,-304.25 446,-304.25"/>
<polygon fill="#7c3aed" stroke="#7c3aed" points="449.5,-304.25 446,-294.25 442.5,-304.25 449.5,-304.25"/>
</g>
<!-- pub -->
<g id="node5" class="node">
<title>pub</title>
<polygon fill="#e0e7ff" stroke="black" points="198.88,-192 71.12,-192 71.12,-151 198.88,-151 198.88,-192"/>
<text xml:space="preserve" text-anchor="middle" x="135" y="-174.7" font-family="Times New Roman,serif" font-size="14.00">Publish</text>
<text xml:space="preserve" text-anchor="middle" x="135" y="-158.2" font-family="Times New Roman,serif" font-size="14.00">(REST+WebSocket)</text>
</g>
<!-- ml_detect&#45;&gt;pub -->
<g id="edge4" class="edge">
<title>ml_detect&#45;&gt;pub</title>
<path fill="none" stroke="black" d="M135,-253.66C135,-253.66 135,-203.83 135,-203.83"/>
<polygon fill="black" stroke="black" points="138.5,-203.83 135,-193.83 131.5,-203.83 138.5,-203.83"/>
</g>
<!-- ens -->
<g id="node11" class="node">
<title>ens</title>
<polygon fill="#fce7f3" stroke="black" points="355.5,-192 228.5,-192 228.5,-151 355.5,-151 355.5,-192"/>
<text xml:space="preserve" text-anchor="middle" x="292" y="-174.7" font-family="Times New Roman,serif" font-size="14.00">Ensemble Detector</text>
<text xml:space="preserve" text-anchor="middle" x="292" y="-158.2" font-family="Times New Roman,serif" font-size="14.00">ZScore ROC LSTM</text>
</g>
<!-- ml_detect&#45;&gt;ens -->
<g id="edge8" class="edge">
<title>ml_detect&#45;&gt;ens</title>
<path fill="none" stroke="#dc2626" stroke-dasharray="5,2" d="M199.68,-275C207.09,-275 212.06,-275 212.06,-275 212.06,-275 212.06,-172 212.06,-172 212.06,-172 216.73,-172 216.73,-172"/>
<polygon fill="#dc2626" stroke="#dc2626" points="216.73,-175.5 226.73,-172 216.73,-168.5 216.73,-175.5"/>
</g>
<!-- ui -->
<g id="node6" class="node">
<title>ui</title>
<polygon fill="#d1fae5" stroke="black" points="220.62,-73.5 53.38,-73.5 49.38,-69.5 49.38,-16 216.62,-16 220.62,-20 220.62,-73.5"/>
<polyline fill="none" stroke="black" points="216.62,-69.5 49.38,-69.5"/>
<polyline fill="none" stroke="black" points="216.62,-69.5 216.62,-16"/>
<polyline fill="none" stroke="black" points="216.62,-69.5 220.62,-73.5"/>
<text xml:space="preserve" text-anchor="middle" x="135" y="-56.2" font-family="Times New Roman,serif" font-size="14.00">Operations Dashboard</text>
<text xml:space="preserve" text-anchor="middle" x="135" y="-39.7" font-family="Times New Roman,serif" font-size="14.00">StatusBar TopologyMap</text>
<text xml:space="preserve" text-anchor="middle" x="135" y="-23.2" font-family="Times New Roman,serif" font-size="14.00">VoltageChart AnomalyPanel</text>
</g>
<!-- pub&#45;&gt;ui -->
<g id="edge5" class="edge">
<title>pub&#45;&gt;ui</title>
<path fill="none" stroke="#059669" stroke-dasharray="5,2" d="M135,-150.57C135,-150.57 135,-85.29 135,-85.29"/>
<polygon fill="#059669" stroke="#059669" points="138.5,-85.29 135,-75.29 131.5,-85.29 138.5,-85.29"/>
<text xml:space="preserve" text-anchor="middle" x="163.88" y="-115.7" font-family="Times New Roman,serif" font-size="14.00">WS/REST</text>
</g>
<!-- dss -->
<g id="node9" class="node">
<title>dss</title>
<polygon fill="#f3e8ff" stroke="black" points="663,-292.5 533,-292.5 533,-256.5 663,-256.5 663,-292.5"/>
<text xml:space="preserve" text-anchor="middle" x="598" y="-269.45" font-family="Times New Roman,serif" font-size="14.00">OpenDSS (Skeleton)</text>
</g>
<!-- mp -->
<g id="node10" class="node">
<title>mp</title>
<polygon fill="#f3e8ff" stroke="black" points="845.62,-292.5 692.38,-292.5 692.38,-256.5 845.62,-256.5 845.62,-292.5"/>
<text xml:space="preserve" text-anchor="middle" x="769" y="-269.45" font-family="Times New Roman,serif" font-size="14.00">MATPOWER (Skeleton)</text>
</g>
<!-- scada -->
<g id="node12" class="node">
<title>scada</title>
<polygon fill="#fce7f3" stroke="black" points="541.88,-192 384.12,-192 384.12,-151 541.88,-151 541.88,-192"/>
<text xml:space="preserve" text-anchor="middle" x="463" y="-174.7" font-family="Times New Roman,serif" font-size="14.00">SCADA Stack</text>
<text xml:space="preserve" text-anchor="middle" x="463" y="-158.2" font-family="Times New Roman,serif" font-size="14.00">IEC61850 DNP3 Modbus</text>
</g>
<!-- comp -->
<g id="node13" class="node">
<title>comp</title>
<polygon fill="#fce7f3" stroke="black" points="713.38,-192 570.62,-192 570.62,-151 713.38,-151 713.38,-192"/>
<text xml:space="preserve" text-anchor="middle" x="642" y="-174.7" font-family="Times New Roman,serif" font-size="14.00">Compliance</text>
<text xml:space="preserve" text-anchor="middle" x="642" y="-158.2" font-family="Times New Roman,serif" font-size="14.00">NERC CIP IEGC 2023</text>
</g>
</g>
</svg>
