<?xml version="1.0" encoding="UTF-8" standalone="no"?>
<!DOCTYPE svg PUBLIC "-//W3C//DTD SVG 1.1//EN"
 "http://www.w3.org/Graphics/SVG/1.1/DTD/svg11.dtd">
<!-- Generated by graphviz version 13.0.1 (20250615.1724)
 -->
<!-- Title: gnn_architecture Pages: 1 -->
<svg width="7414pt" height="1725pt"
 viewBox="0.00 0.00 7414.00 1725.00" xmlns="http://www.w3.org/2000/svg" xmlns:xlink="http://www.w3.org/1999/xlink">
<g id="graph0" class="graph" transform="scale(4.16667 4.16667) rotate(0) translate(36 378)">
<title>gnn_architecture</title>
<polygon fill="white" stroke="none" points="-36,36 -36,-378 1743.25,-378 1743.25,36 -36,36"/>
<g id="clust1" class="cluster">
<title>cluster_rgat</title>
<path fill="white" stroke="#7c3aed" stroke-dasharray="5,2" d="M419.5,-159C419.5,-159 1078.5,-159 1078.5,-159 1084.5,-159 1090.5,-165 1090.5,-171 1090.5,-171 1090.5,-290 1090.5,-290 1090.5,-296 1084.5,-302 1078.5,-302 1078.5,-302 419.5,-302 419.5,-302 413.5,-302 407.5,-296 407.5,-290 407.5,-290 407.5,-171 407.5,-171 407.5,-165 413.5,-159 419.5,-159"/>
<text xml:space="preserve" text-anchor="middle" x="749" y="-286.6" font-family="Times,serif" font-weight="bold" font-size="12.00" fill="#7c3aed">RGATv2 Backbone</text>
</g>
<g id="clust2" class="cluster">
<title>cluster_heads</title>
<path fill="white" stroke="#059669" stroke-dasharray="5,2" d="M1171.75,-128C1171.75,-128 1322.25,-128 1322.25,-128 1328.25,-128 1334.25,-134 1334.25,-140 1334.25,-140 1334.25,-322 1334.25,-322 1334.25,-328 1328.25,-334 1322.25,-334 1322.25,-334 1171.75,-334 1171.75,-334 1165.75,-334 1159.75,-328 1159.75,-322 1159.75,-322 1159.75,-140 1159.75,-140 1159.75,-134 1165.75,-128 1171.75,-128"/>
<text xml:space="preserve" text-anchor="middle" x="1247" y="-318.6" font-family="Times,serif" font-weight="bold" font-size="12.00" fill="#059669">Output Heads</text>
</g>
<g id="clust3" class="cluster">
<title>cluster_cls</title>
<path fill="white" stroke="#dc2626" stroke-dasharray="5,2" d="M1408.75,-8C1408.75,-8 1525.5,-8 1525.5,-8 1531.5,-8 1537.5,-14 1537.5,-20 1537.5,-20 1537.5,-218 1537.5,-218 1537.5,-224 1531.5,-230 1525.5,-230 1525.5,-230 1408.75,-230 1408.75,-230 1402.75,-230 1396.75,-224 1396.75,-218 1396.75,-218 1396.75,-20 1396.75,-20 1396.75,-14 1402.75,-8 1408.75,-8"/>
<text xml:space="preserve" text-anchor="middle" x="1467.12" y="-214.6" font-family="Times,serif" font-weight="bold" font-size="12.00" fill="#dc2626">FaultClassifier</text>
</g>
<!-- snapshot -->
<g id="node1" class="node">
<title>snapshot</title>
<path fill="#dbeafe" stroke="black" d="M124,-251.34C124,-255.31 96.21,-258.53 62,-258.53 27.79,-258.53 0,-255.31 0,-251.34 0,-251.34 0,-186.66 0,-186.66 0,-182.69 27.79,-179.47 62,-179.47 96.21,-179.47 124,-182.69 124,-186.66 124,-186.66 124,-251.34 124,-251.34"/>
<path fill="none" stroke="black" d="M124,-251.34C124,-247.38 96.21,-244.16 62,-244.16 27.79,-244.16 0,-247.38 0,-251.34"/>
<text xml:space="preserve" text-anchor="middle" x="62" y="-230.45" font-family="Times New Roman,serif" font-size="14.00">GridGraphSnapshot</text>
<text xml:space="preserve" text-anchor="middle" x="62" y="-213.95" font-family="Times New Roman,serif" font-size="14.00">(N x 10 node feats)</text>
<text xml:space="preserve" text-anchor="middle" x="62" y="-197.45" font-family="Times New Roman,serif" font-size="14.00">(E x 10 edge feats)</text>
</g>
<!-- builder -->
<g id="node2" class="node">
<title>builder</title>
<polygon fill="#e0e7ff" stroke="black" points="338,-247.75 221.5,-247.75 221.5,-190.25 338,-190.25 338,-247.75"/>
<text xml:space="preserve" text-anchor="middle" x="279.75" y="-230.45" font-family="Times New Roman,serif" font-size="14.00">GridBuilder</text>
<text xml:space="preserve" text-anchor="middle" x="279.75" y="-213.95" font-family="Times New Roman,serif" font-size="14.00">Feature Extraction</text>
<text xml:space="preserve" text-anchor="middle" x="279.75" y="-197.45" font-family="Times New Roman,serif" font-size="14.00">+ Normalization</text>
</g>
<!-- snapshot&#45;&gt;builder -->
<g id="edge5" class="edge">
<title>snapshot&#45;&gt;builder</title>
<path fill="none" stroke="black" d="M124.4,-219C124.4,-219 209.57,-219 209.57,-219"/>
<polygon fill="black" stroke="black" points="209.57,-222.5 219.57,-219 209.57,-215.5 209.57,-222.5"/>
<text xml:space="preserve" text-anchor="middle" x="172.75" y="-222.2" font-family="Times New Roman,serif" font-size="14.00">to PyG Data</text>
</g>
<!-- node_enc -->
<g id="node3" class="node">
<title>node_enc</title>
<polygon fill="#ede9fe" stroke="black" points="588.25,-271.5 415.5,-271.5 415.5,-230.5 588.25,-230.5 588.25,-271.5"/>
<text xml:space="preserve" text-anchor="middle" x="501.88" y="-254.2" font-family="Times New Roman,serif" font-size="14.00">Node Encoder</text>
<text xml:space="preserve" text-anchor="middle" x="501.88" y="-237.7" font-family="Times New Roman,serif" font-size="14.00">Linear + LayerNorm + ELU</text>
</g>
<!-- builder&#45;&gt;node_enc -->
<g id="edge6" class="edge">
<title>builder&#45;&gt;node_enc</title>
<path fill="none" stroke="black" d="M338.4,-239.12C338.4,-239.12 403.75,-239.12 403.75,-239.12"/>
<polygon fill="black" stroke="black" points="403.75,-242.63 413.75,-239.13 403.75,-235.63 403.75,-242.63"/>
<text xml:space="preserve" text-anchor="middle" x="376.25" y="-249.2" font-family="Times New Roman,serif" font-size="14.00">x [N,10]</text>
</g>
<!-- edge_enc -->
<g id="node4" class="node">
<title>edge_enc</title>
<polygon fill="#ede9fe" stroke="black" points="588.25,-208.5 415.5,-208.5 415.5,-167.5 588.25,-167.5 588.25,-208.5"/>
<text xml:space="preserve" text-anchor="middle" x="501.88" y="-191.2" font-family="Times New Roman,serif" font-size="14.00">Edge Encoder</text>
<text xml:space="preserve" text-anchor="middle" x="501.88" y="-174.7" font-family="Times New Roman,serif" font-size="14.00">Linear + LayerNorm + ELU</text>
</g>
<!-- builder&#45;&gt;edge_enc -->
<g id="edge7" class="edge">
<title>builder&#45;&gt;edge_enc</title>
<path fill="none" stroke="black" d="M338.4,-199.38C338.4,-199.38 403.75,-199.38 403.75,-199.38"/>
<polygon fill="black" stroke="black" points="403.75,-202.88 413.75,-199.38 403.75,-195.88 403.75,-202.88"/>
<text xml:space="preserve" text-anchor="middle" x="376.25" y="-200.2" font-family="Times New Roman,serif" font-size="14.00">e [E,10]</text>
</g>
<!-- gat1 -->
<g id="node5" class="node">
<title>gat1</title>
<polygon fill="#ddd6fe" stroke="black" points="753,-240.5 619.25,-240.5 619.25,-199.5 753,-199.5 753,-240.5"/>
<text xml:space="preserve" text-anchor="middle" x="686.12" y="-223.2" font-family="Times New Roman,serif" font-size="14.00">GATv2Conv Block 1</text>
<text xml:space="preserve" text-anchor="middle" x="686.12" y="-206.7" font-family="Times New Roman,serif" font-size="14.00">(h=4, residual, norm)</text>
</g>
<!-- node_enc&#45;&gt;gat1 -->
<g id="edge1" class="edge">
<title>node_enc&#45;&gt;gat1</title>
<path fill="none" stroke="black" d="M588.6,-235.5C588.6,-235.5 607.38,-235.5 607.38,-235.5"/>
<polygon fill="black" stroke="black" points="607.38,-239 617.38,-235.5 607.38,-232 607.38,-239"/>
</g>
<!-- edge_enc&#45;&gt;gat1 -->
<g id="edge2" class="edge">
<title>edge_enc&#45;&gt;gat1</title>
<path fill="none" stroke="black" d="M588.6,-204C588.6,-204 607.38,-204 607.38,-204"/>
<polygon fill="black" stroke="black" points="607.38,-207.5 617.38,-204 607.38,-200.5 607.38,-207.5"/>
</g>
<!-- gat2 -->
<g id="node6" class="node">
<title>gat2</title>
<polygon fill="#ddd6fe" stroke="black" points="917.75,-240.5 784,-240.5 784,-199.5 917.75,-199.5 917.75,-240.5"/>
<text xml:space="preserve" text-anchor="middle" x="850.88" y="-223.2" font-family="Times New Roman,serif" font-size="14.00">GATv2Conv Block 2</text>
<text xml:space="preserve" text-anchor="middle" x="850.88" y="-206.7" font-family="Times New Roman,serif" font-size="14.00">(h=4, residual, norm)</text>
</g>
<!-- gat1&#45;&gt;gat2 -->
<g id="edge3" class="edge">
<title>gat1&#45;&gt;gat2</title>
<path fill="none" stroke="black" d="M753.14,-220C753.14,-220 772.14,-220 772.14,-220"/>
<polygon fill="black" stroke="black" points="772.14,-223.5 782.14,-220 772.14,-216.5 772.14,-223.5"/>
</g>
<!-- gat3 -->
<g id="node7" class="node">
<title>gat3</title>
<polygon fill="#ddd6fe" stroke="black" points="1082.5,-240.5 948.75,-240.5 948.75,-199.5 1082.5,-199.5 1082.5,-240.5"/>
<text xml:space="preserve" text-anchor="middle" x="1015.62" y="-223.2" font-family="Times New Roman,serif" font-size="14.00">GATv2Conv Block 3</text>
<text xml:space="preserve" text-anchor="middle" x="1015.62" y="-206.7" font-family="Times New Roman,serif" font-size="14.00">(h=4, residual, norm)</text>
</g>
<!-- gat2&#45;&gt;gat3 -->
<g id="edge4" class="edge">
<title>gat2&#45;&gt;gat3</title>
<path fill="none" stroke="black" d="M917.89,-220C917.89,-220 936.89,-220 936.89,-220"/>
<polygon fill="black" stroke="black" points="936.89,-223.5 946.89,-220 936.89,-216.5 936.89,-223.5"/>
</g>
<!-- node_head -->
<g id="node8" class="node">
<title>node_head</title>
<polygon fill="#d1fae5" stroke="black" points="1326.25,-303.5 1167.75,-303.5 1167.75,-262.5 1326.25,-262.5 1326.25,-303.5"/>
<text xml:space="preserve" text-anchor="middle" x="1247" y="-286.2" font-family="Times New Roman,serif" font-size="14.00">Node Score Head</text>
<text xml:space="preserve" text-anchor="middle" x="1247" y="-269.7" font-family="Times New Roman,serif" font-size="14.00">MLP &#45;&gt; sigmoid &#45;&gt; [N,1]</text>
</g>
<!-- gat3&#45;&gt;node_head -->
<g id="edge8" class="edge">
<title>gat3&#45;&gt;node_head</title>
<path fill="none" stroke="black" d="M1015.25,-240.75C1015.25,-253.34 1015.25,-267 1015.25,-267 1015.25,-267 1156.06,-267 1156.06,-267"/>
<polygon fill="black" stroke="black" points="1156.06,-270.5 1166.06,-267 1156.06,-263.5 1156.06,-270.5"/>
<text xml:space="preserve" text-anchor="middle" x="1125.12" y="-276.2" font-family="Times New Roman,serif" font-size="14.00">h [N,128]</text>
</g>
<!-- edge_head -->
<g id="node9" class="node">
<title>edge_head</title>
<polygon fill="#d1fae5" stroke="black" points="1325.5,-240.5 1168.5,-240.5 1168.5,-199.5 1325.5,-199.5 1325.5,-240.5"/>
<text xml:space="preserve" text-anchor="middle" x="1247" y="-223.2" font-family="Times New Roman,serif" font-size="14.00">Edge Score Head</text>
<text xml:space="preserve" text-anchor="middle" x="1247" y="-206.7" font-family="Times New Roman,serif" font-size="14.00">MLP &#45;&gt; sigmoid &#45;&gt; [E,1]</text>
</g>
<!-- gat3&#45;&gt;edge_head -->
<g id="edge9" class="edge">
<title>gat3&#45;&gt;edge_head</title>
<path fill="none" stroke="black" d="M1082.86,-220C1082.86,-220 1156.64,-220 1156.64,-220"/>
<polygon fill="black" stroke="black" points="1156.64,-223.5 1166.64,-220 1156.64,-216.5 1156.64,-223.5"/>
<text xml:space="preserve" text-anchor="middle" x="1125.12" y="-223.2" font-family="Times New Roman,serif" font-size="14.00">e [E,128]</text>
</g>
<!-- pool -->
<g id="node10" class="node">
<title>pool</title>
<polygon fill="#d1fae5" stroke="black" points="1321,-177.5 1173,-177.5 1173,-136.5 1321,-136.5 1321,-177.5"/>
<text xml:space="preserve" text-anchor="middle" x="1247" y="-160.2" font-family="Times New Roman,serif" font-size="14.00">Attention Pooling</text>
<text xml:space="preserve" text-anchor="middle" x="1247" y="-143.7" font-family="Times New Roman,serif" font-size="14.00">Learned node weighting</text>
</g>
<!-- gat3&#45;&gt;pool -->
<g id="edge10" class="edge">
<title>gat3&#45;&gt;pool</title>
<path fill="none" stroke="black" d="M1015.25,-199.03C1015.25,-186.3 1015.25,-172.5 1015.25,-172.5 1015.25,-172.5 1161.2,-172.5 1161.2,-172.5"/>
<polygon fill="black" stroke="black" points="1161.2,-176 1171.2,-172.5 1161.2,-169 1161.2,-176"/>
<text xml:space="preserve" text-anchor="middle" x="1125.12" y="-170.2" font-family="Times New Roman,serif" font-size="14.00">h [N,128]</text>
</g>
<!-- physics -->
<g id="node14" class="node">
<title>physics</title>
<polygon fill="#fef3c7" stroke="black" points="1517.5,-328.25 1410.75,-328.25 1410.75,-237.75 1523.5,-237.75 1523.5,-322.25 1517.5,-328.25"/>
<polyline fill="none" stroke="black" points="1517.5,-328.25 1517.5,-322.25"/>
<polyline fill="none" stroke="black" points="1523.5,-322.25 1517.5,-322.25"/>
<text xml:space="preserve" text-anchor="middle" x="1467.12" y="-310.95" font-family="Times New Roman,serif" font-size="14.00">Physics&#45;Informed</text>
<text xml:space="preserve" text-anchor="middle" x="1467.12" y="-294.45" font-family="Times New Roman,serif" font-size="14.00">Regularisation</text>
<text xml:space="preserve" text-anchor="middle" x="1467.12" y="-277.95" font-family="Times New Roman,serif" font-size="14.00">(Voltage bounds,</text>
<text xml:space="preserve" text-anchor="middle" x="1467.12" y="-261.45" font-family="Times New Roman,serif" font-size="14.00"> conservation,</text>
<text xml:space="preserve" text-anchor="middle" x="1467.12" y="-244.95" font-family="Times New Roman,serif" font-size="14.00"> smoothness)</text>
</g>
<!-- node_head&#45;&gt;physics -->
<g id="edge14" class="edge">
<title>node_head&#45;&gt;physics</title>
<path fill="none" stroke="black" stroke-dasharray="5,2" d="M1326.47,-283C1326.47,-283 1397.49,-283 1397.49,-283"/>
<polygon fill="none" stroke="black" points="1397.64,-283 1403.64,-279 1409.64,-283 1403.64,-287 1397.64,-283"/>
</g>
<!-- edge_head&#45;&gt;physics -->
<g id="edge15" class="edge">
<title>edge_head&#45;&gt;physics</title>
<path fill="none" stroke="black" stroke-dasharray="5,2" d="M1325.89,-218.75C1389.09,-218.75 1467.25,-218.75 1467.25,-218.75 1467.25,-218.75 1467.25,-224.28 1467.25,-224.28"/>
<polygon fill="none" stroke="black" points="1467.25,-224.43 1471.25,-230.43 1467.25,-236.43 1463.25,-230.43 1467.25,-224.43"/>
</g>
<!-- cls -->
<g id="node11" class="node">
<title>cls</title>
<polygon fill="#fce7f3" stroke="black" points="1518.62,-199.75 1415.62,-199.75 1415.62,-142.25 1518.62,-142.25 1518.62,-199.75"/>
<text xml:space="preserve" text-anchor="middle" x="1467.12" y="-182.45" font-family="Times New Roman,serif" font-size="14.00">Fault Type</text>
<text xml:space="preserve" text-anchor="middle" x="1467.12" y="-165.95" font-family="Times New Roman,serif" font-size="14.00">6&#45;class MLP</text>
<text xml:space="preserve" text-anchor="middle" x="1467.12" y="-149.45" font-family="Times New Roman,serif" font-size="14.00">+ Temp Scaling</text>
</g>
<!-- pool&#45;&gt;cls -->
<g id="edge11" class="edge">
<title>pool&#45;&gt;cls</title>
<path fill="none" stroke="black" d="M1321.22,-159.88C1321.22,-159.88 1403.93,-159.88 1403.93,-159.88"/>
<polygon fill="black" stroke="black" points="1403.93,-163.38 1413.93,-159.88 1403.93,-156.38 1403.93,-163.38"/>
<text xml:space="preserve" text-anchor="middle" x="1365.5" y="-167.2" font-family="Times New Roman,serif" font-size="14.00">g [1,64]</text>
</g>
<!-- iso -->
<g id="node12" class="node">
<title>iso</title>
<polygon fill="#fce7f3" stroke="black" points="1529.5,-120.5 1404.75,-120.5 1404.75,-79.5 1529.5,-79.5 1529.5,-120.5"/>
<text xml:space="preserve" text-anchor="middle" x="1467.12" y="-103.2" font-family="Times New Roman,serif" font-size="14.00">Isolation Head</text>
<text xml:space="preserve" text-anchor="middle" x="1467.12" y="-86.7" font-family="Times New Roman,serif" font-size="14.00">Per&#45;node attribution</text>
</g>
<!-- pool&#45;&gt;iso -->
<g id="edge12" class="edge">
<title>pool&#45;&gt;iso</title>
<path fill="none" stroke="black" d="M1271.25,-136.1C1271.25,-119.83 1271.25,-100 1271.25,-100 1271.25,-100 1392.83,-100 1392.83,-100"/>
<polygon fill="black" stroke="black" points="1392.83,-103.5 1402.83,-100 1392.83,-96.5 1392.83,-103.5"/>
<text xml:space="preserve" text-anchor="middle" x="1365.5" y="-113.2" font-family="Times New Roman,serif" font-size="14.00">h [N,64]</text>
</g>
<!-- sev -->
<g id="node13" class="node">
<title>sev</title>
<polygon fill="#fce7f3" stroke="black" points="1520.12,-57.5 1414.12,-57.5 1414.12,-16.5 1520.12,-16.5 1520.12,-57.5"/>
<text xml:space="preserve" text-anchor="middle" x="1467.12" y="-40.2" font-family="Times New Roman,serif" font-size="14.00">Severity Head</text>
<text xml:space="preserve" text-anchor="middle" x="1467.12" y="-23.7" font-family="Times New Roman,serif" font-size="14.00">Regression [0,1]</text>
</g>
<!-- pool&#45;&gt;sev -->
<g id="edge13" class="edge">
<title>pool&#45;&gt;sev</title>
<path fill="none" stroke="black" d="M1222.25,-136.1C1222.25,-101.72 1222.25,-37 1222.25,-37 1222.25,-37 1402.18,-37 1402.18,-37"/>
<polygon fill="black" stroke="black" points="1402.18,-40.5 1412.18,-37 1402.18,-33.5 1402.18,-40.5"/>
<text xml:space="preserve" text-anchor="middle" x="1365.5" y="-60.2" font-family="Times New Roman,serif" font-size="14.00">g [1,64]</text>
</g>
<!-- output -->
<g id="node15" class="node">
<title>output</title>
<polygon fill="#e0e7ff" stroke="black" points="1707.25,-137 1565.5,-137 1561.5,-133 1561.5,-63 1703.25,-63 1707.25,-67 1707.25,-137"/>
<polyline fill="none" stroke="black" points="1703.25,-133 1561.5,-133"/>
<polyline fill="none" stroke="black" points="1703.25,-133 1703.25,-63"/>
<polyline fill="none" stroke="black" points="1703.25,-133 1707.25,-137"/>
<text xml:space="preserve" text-anchor="middle" x="1634.38" y="-119.7" font-family="Times New Roman,serif" font-size="14.00">FaultPrediction</text>
<text xml:space="preserve" text-anchor="middle" x="1634.38" y="-103.2" font-family="Times New Roman,serif" font-size="14.00">(FaultType, confidence,</text>
<text xml:space="preserve" text-anchor="middle" x="1634.38" y="-86.7" font-family="Times New Roman,serif" font-size="14.00"> isolation_nodes,</text>
<text xml:space="preserve" text-anchor="middle" x="1634.38" y="-70.2" font-family="Times New Roman,serif" font-size="14.00"> severity, explanation)</text>
</g>
<!-- cls&#45;&gt;output -->
<g id="edge16" class="edge">
<title>cls&#45;&gt;output</title>
<path fill="none" stroke="black" d="M1467.25,-141.95C1467.25,-134.48 1467.25,-128.5 1467.25,-128.5 1467.25,-128.5 1549.56,-128.5 1549.56,-128.5"/>
<polygon fill="black" stroke="black" points="1549.56,-132 1559.56,-128.5 1549.56,-125 1549.56,-132"/>
</g>
<!-- iso&#45;&gt;output -->
<g id="edge17" class="edge">
<title>iso&#45;&gt;output</title>
<path fill="none" stroke="black" d="M1529.88,-100C1529.88,-100 1549.62,-100 1549.62,-100"/>
<polygon fill="black" stroke="black" points="1549.62,-103.5 1559.62,-100 1549.62,-96.5 1549.62,-103.5"/>
</g>
<!-- sev&#45;&gt;output -->
<g id="edge18" class="edge">
<title>sev&#45;&gt;output</title>
<path fill="none" stroke="black" d="M1467.25,-57.71C1467.25,-64.93 1467.25,-71.25 1467.25,-71.25 1467.25,-71.25 1549.56,-71.25 1549.56,-71.25"/>
<polygon fill="black" stroke="black" points="1549.56,-74.75 1559.56,-71.25 1549.56,-67.75 1549.56,-74.75"/>
</g>
</g>
</svg>
