<?xml version="1.0" encoding="UTF-8" standalone="no"?>
<!DOCTYPE svg PUBLIC "-//W3C//DTD SVG 1.1//EN"
 "http://www.w3.org/Graphics/SVG/1.1/DTD/svg11.dtd">
<!-- Generated by graphviz version 13.0.1 (20250615.1724)
 -->
<!-- Title: RGATv2 Pages: 1 -->
<svg width="1015pt" height="994pt"
 viewBox="0.00 0.00 1015.00 994.00" xmlns="http://www.w3.org/2000/svg" xmlns:xlink="http://www.w3.org/1999/xlink">
<g id="graph0" class="graph" transform="scale(1 1) rotate(0) translate(36 957.75)">
<title>RGATv2</title>
<polygon fill="white" stroke="none" points="-36,36 -36,-957.75 978.62,-957.75 978.62,36 -36,36"/>
<g id="clust1" class="cluster">
<title>cluster_input</title>
<polygon fill="#f8f9fa" stroke="#cccccc" points="348.25,-818 348.25,-913.75 788.25,-913.75 788.25,-818 348.25,-818"/>
<text xml:space="preserve" text-anchor="middle" x="568.25" y="-899.3" font-family="Calibri" font-size="11.00">Input</text>
</g>
<g id="clust2" class="cluster">
<title>cluster_encoders</title>
<polygon fill="#f8f9fa" stroke="#cccccc" points="309.25,-692.5 309.25,-763.75 661.25,-763.75 661.25,-692.5 309.25,-692.5"/>
<text xml:space="preserve" text-anchor="middle" x="485.25" y="-749.3" font-family="Calibri" font-size="11.00">Feature Encoders</text>
</g>
<g id="clust3" class="cluster">
<title>cluster_gnn</title>
<polygon fill="#f8f9fa" stroke="#cccccc" points="356.25,-394 356.25,-654 473.25,-654 473.25,-394 356.25,-394"/>
<text xml:space="preserve" text-anchor="middle" x="414.75" y="-639.55" font-family="Calibri" font-size="11.00">3 x ResidualGATv2Conv</text>
</g>
<g id="clust4" class="cluster">
<title>cluster_heads</title>
<polygon fill="#f8f9fa" stroke="#cccccc" points="115.25,-285 115.25,-362.25 350.25,-362.25 350.25,-285 115.25,-285"/>
<text xml:space="preserve" text-anchor="middle" x="232.75" y="-347.8" font-family="Calibri" font-size="11.00">Output Heads</text>
</g>
<g id="clust5" class="cluster">
<title>cluster_classifier</title>
<polygon fill="#f8f9fa" stroke="#cccccc" points="238.25,-89 238.25,-253.25 502.25,-253.25 502.25,-89 238.25,-89"/>
<text xml:space="preserve" text-anchor="middle" x="370.25" y="-238.8" font-family="Calibri" font-size="11.00">FaultClassifier</text>
</g>
<g id="clust6" class="cluster">
<title>cluster_outputs</title>
<polygon fill="#f8f9fa" stroke="#cccccc" points="106.25,-8 106.25,-253.25 230.25,-253.25 230.25,-8 106.25,-8"/>
<text xml:space="preserve" text-anchor="middle" x="168.25" y="-238.8" font-family="Calibri" font-size="11.00">Outputs</text>
</g>
<!-- color_defs -->
<g id="node1" class="node">
<title>color_defs</title>
<polygon fill="lightgrey" stroke="none" points="320.5,-874.25 0,-874.25 0,-838.25 320.5,-838.25 320.5,-874.25"/>
<polygon fill="#e8f0fe" stroke="none" points="11,-849.25 11,-863.25 25,-863.25 25,-849.25 11,-849.25"/>
<text xml:space="preserve" text-anchor="start" x="30" y="-852.2" font-family="Calibri" font-size="9.00" fill="#7f7f7f">Input</text>
<polygon fill="#e6f4ea" stroke="none" points="53.75,-849.25 53.75,-863.25 67.75,-863.25 67.75,-849.25 53.75,-849.25"/>
<text xml:space="preserve" text-anchor="start" x="72.75" y="-852.2" font-family="Calibri" font-size="9.00" fill="#7f7f7f">Encoder</text>
<polygon fill="#fce8e6" stroke="none" points="107,-849.25 107,-863.25 121,-863.25 121,-849.25 107,-849.25"/>
<text xml:space="preserve" text-anchor="start" x="126" y="-852.2" font-family="Calibri" font-size="9.00" fill="#7f7f7f">GNN Layer</text>
<polygon fill="#fef7e0" stroke="none" points="170.75,-849.25 170.75,-863.25 184.75,-863.25 184.75,-849.25 170.75,-849.25"/>
<text xml:space="preserve" text-anchor="start" x="189.75" y="-852.2" font-family="Calibri" font-size="9.00" fill="#7f7f7f">Output Head</text>
<polygon fill="#f3e8fd" stroke="none" points="241.25,-849.25 241.25,-863.25 255.25,-863.25 255.25,-849.25 241.25,-849.25"/>
<text xml:space="preserve" text-anchor="start" x="260.25" y="-852.2" font-family="Calibri" font-size="9.00" fill="#7f7f7f">Pool/Classify</text>
</g>
<!-- node_features -->
<g id="node2" class="node">
<title>node_features</title>
<polygon fill="#e8f0fe" stroke="black" points="634.62,-886.5 521.88,-886.5 521.88,-826 634.62,-826 634.62,-886.5"/>
<text xml:space="preserve" text-anchor="start" x="529.88" y="-873" font-family="Calibri" font-size="10.00">Node Features</text>
<text xml:space="preserve" text-anchor="start" x="529.88" y="-862.5" font-family="Calibri" font-size="10.00">[N, 10]</text>
<text xml:space="preserve" text-anchor="start" x="529.88" y="-852" font-family="Calibri" font-size="10.00">(vm_pu, va_deg, p_mw,</text>
<text xml:space="preserve" text-anchor="start" x="529.88" y="-841.5" font-family="Calibri" font-size="10.00">q_mvar, vn_kv, type,</text>
<text xml:space="preserve" text-anchor="middle" x="578.25" y="-831" font-family="Calibri" font-size="10.00">in_service, pf, qf, angle)</text>
</g>
<!-- node_encoder -->
<g id="node5" class="node">
<title>node_encoder</title>
<polygon fill="#e6f4ea" stroke="black" points="653,-736.5 503.5,-736.5 503.5,-700.5 653,-700.5 653,-736.5"/>
<text xml:space="preserve" text-anchor="start" x="548.62" y="-723" font-family="Calibri" font-size="10.00">Node Encoder</text>
<text xml:space="preserve" text-anchor="start" x="553.5" y="-714.9" font-family="Calibri" font-size="8.00">Linear 10 to 128</text>
<text xml:space="preserve" text-anchor="start" x="511.5" y="-706.9" font-family="Calibri" font-size="8.00">LayerNorm middot ELU middot Dropout</text>
</g>
<!-- node_features&#45;&gt;node_encoder -->
<g id="edge1" class="edge">
<title>node_features&#45;&gt;node_encoder</title>
<path fill="none" stroke="black" d="M578.25,-825.68C578.25,-825.68 578.25,-748.25 578.25,-748.25"/>
<polygon fill="black" stroke="black" points="581.75,-748.25 578.25,-738.25 574.75,-748.25 581.75,-748.25"/>
</g>
<!-- physics_loss -->
<g id="node17" class="node">
<title>physics_loss</title>
<polygon fill="#fce8e6" stroke="black" points="780.38,-335 630.12,-335 630.12,-293 786.38,-293 786.38,-329 780.38,-335"/>
<polyline fill="none" stroke="black" points="780.38,-335 780.38,-329"/>
<polyline fill="none" stroke="black" points="786.38,-329 780.38,-329"/>
<text xml:space="preserve" text-anchor="start" x="638.12" y="-322.5" font-family="Calibri" font-size="10.00">PhysicsInformedLoss (weight 0.30)</text>
<text xml:space="preserve" text-anchor="start" x="659.12" y="-314.4" font-family="Calibri" font-size="8.00">Voltage bounds [0.85, 1.15] pu</text>
<text xml:space="preserve" text-anchor="start" x="675.62" y="-306.4" font-family="Calibri" font-size="8.00">Power conservation</text>
<text xml:space="preserve" text-anchor="start" x="667.75" y="-298.4" font-family="Calibri" font-size="8.00">Spatial edge smoothness</text>
</g>
<!-- node_features&#45;&gt;physics_loss -->
<g id="edge16" class="edge">
<title>node_features&#45;&gt;physics_loss</title>
<path fill="none" stroke="black" stroke-dasharray="1,5" d="M634.96,-831C649.87,-831 661.88,-831 661.88,-831 661.88,-831 661.88,-346.74 661.88,-346.74"/>
<polygon fill="black" stroke="black" points="665.38,-346.74 661.88,-336.74 658.38,-346.74 665.38,-346.74"/>
<text xml:space="preserve" text-anchor="middle" x="721.38" y="-555.15" font-family="Times New Roman,serif" font-size="8.00">features</text>
</g>
<!-- edge_features -->
<g id="node3" class="node">
<title>edge_features</title>
<polygon fill="#e8f0fe" stroke="black" points="486.25,-886.5 356.25,-886.5 356.25,-826 486.25,-826 486.25,-886.5"/>
<text xml:space="preserve" text-anchor="start" x="364.25" y="-873" font-family="Calibri" font-size="10.00">Edge Features</text>
<text xml:space="preserve" text-anchor="start" x="364.25" y="-862.5" font-family="Calibri" font-size="10.00">[E, 10]</text>
<text xml:space="preserve" text-anchor="start" x="364.25" y="-852" font-family="Calibri" font-size="10.00">(r, x, length, max_i,</text>
<text xml:space="preserve" text-anchor="start" x="364.25" y="-841.5" font-family="Calibri" font-size="10.00">in_service, loading,</text>
<text xml:space="preserve" text-anchor="middle" x="421.25" y="-831" font-family="Calibri" font-size="10.00">p_from, q_from, p_to, q_to)</text>
</g>
<!-- edge_encoder -->
<g id="node6" class="node">
<title>edge_encoder</title>
<polygon fill="#e6f4ea" stroke="black" points="467,-736.5 317.5,-736.5 317.5,-700.5 467,-700.5 467,-736.5"/>
<text xml:space="preserve" text-anchor="start" x="364.12" y="-723" font-family="Calibri" font-size="10.00">Edge Encoder</text>
<text xml:space="preserve" text-anchor="start" x="367.5" y="-714.9" font-family="Calibri" font-size="8.00">Linear 10 to 128</text>
<text xml:space="preserve" text-anchor="start" x="325.5" y="-706.9" font-family="Calibri" font-size="8.00">LayerNorm middot ELU middot Dropout</text>
</g>
<!-- edge_features&#45;&gt;edge_encoder -->
<g id="edge2" class="edge">
<title>edge_features&#45;&gt;edge_encoder</title>
<path fill="none" stroke="black" d="M411.62,-825.68C411.62,-825.68 411.62,-748.25 411.62,-748.25"/>
<polygon fill="black" stroke="black" points="415.13,-748.25 411.63,-738.25 408.13,-748.25 415.13,-748.25"/>
</g>
<!-- edge_index -->
<g id="node4" class="node">
<title>edge_index</title>
<polygon fill="#e8f0fe" stroke="black" points="779.75,-876 670.75,-876 670.75,-836.5 779.75,-836.5 779.75,-876"/>
<text xml:space="preserve" text-anchor="start" x="678.75" y="-862.5" font-family="Calibri" font-size="10.00">Edge Index</text>
<text xml:space="preserve" text-anchor="start" x="678.75" y="-852" font-family="Calibri" font-size="10.00">[2, E]</text>
<text xml:space="preserve" text-anchor="middle" x="725.25" y="-841.5" font-family="Calibri" font-size="10.00">(topology connectivity)</text>
</g>
<!-- layer1 -->
<g id="node7" class="node">
<title>layer1</title>
<polygon fill="#fce8e6" stroke="black" points="457.5,-626.75 371,-626.75 371,-584.75 457.5,-584.75 457.5,-626.75"/>
<text xml:space="preserve" text-anchor="start" x="399.25" y="-614.25" font-family="Calibri" font-size="10.00">Layer 1</text>
<text xml:space="preserve" text-anchor="start" x="382.75" y="-606.15" font-family="Calibri" font-size="8.00">GATv2Conv 4 heads</text>
<text xml:space="preserve" text-anchor="start" x="379" y="-598.15" font-family="Calibri" font-size="8.00">Residual + LayerNorm</text>
<text xml:space="preserve" text-anchor="start" x="390.25" y="-590.15" font-family="Calibri" font-size="8.00">ELU + Dropout</text>
</g>
<!-- node_encoder&#45;&gt;layer1 -->
<g id="edge3" class="edge">
<title>node_encoder&#45;&gt;layer1</title>
<path fill="none" stroke="black" d="M548.88,-700.17C548.88,-668.3 548.88,-606 548.88,-606 548.88,-606 469.47,-606 469.47,-606"/>
<polygon fill="black" stroke="black" points="469.47,-602.5 459.47,-606 469.47,-609.5 469.47,-602.5"/>
<text xml:space="preserve" text-anchor="middle" x="561.75" y="-665.2" font-family="Times New Roman,serif" font-size="14.00">h [N, 128]</text>
</g>
<!-- edge_encoder&#45;&gt;layer1 -->
<g id="edge4" class="edge">
<title>edge_encoder&#45;&gt;layer1</title>
<path fill="none" stroke="black" stroke-dasharray="5,2" d="M414.25,-700.13C414.25,-700.13 414.25,-638.7 414.25,-638.7"/>
<polygon fill="black" stroke="black" points="417.75,-638.7 414.25,-628.7 410.75,-638.7 417.75,-638.7"/>
<text xml:space="preserve" text-anchor="middle" x="419.75" y="-667.52" font-family="Times New Roman,serif" font-size="8.00">e [E, 128]</text>
</g>
<!-- layer2 -->
<g id="node8" class="node">
<title>layer2</title>
<polygon fill="#fce8e6" stroke="black" points="457.5,-531 371,-531 371,-489 457.5,-489 457.5,-531"/>
<text xml:space="preserve" text-anchor="start" x="399.25" y="-518.5" font-family="Calibri" font-size="10.00">Layer 2</text>
<text xml:space="preserve" text-anchor="start" x="382.75" y="-510.4" font-family="Calibri" font-size="8.00">GATv2Conv 4 heads</text>
<text xml:space="preserve" text-anchor="start" x="379" y="-502.4" font-family="Calibri" font-size="8.00">Residual + LayerNorm</text>
<text xml:space="preserve" text-anchor="start" x="390.25" y="-494.4" font-family="Calibri" font-size="8.00">ELU + Dropout</text>
</g>
<!-- layer1&#45;&gt;layer2 -->
<g id="edge5" class="edge">
<title>layer1&#45;&gt;layer2</title>
<path fill="none" stroke="black" d="M414.25,-584.5C414.25,-584.5 414.25,-542.7 414.25,-542.7"/>
<polygon fill="black" stroke="black" points="417.75,-542.7 414.25,-532.7 410.75,-542.7 417.75,-542.7"/>
</g>
<!-- layer3 -->
<g id="node9" class="node">
<title>layer3</title>
<polygon fill="#fce8e6" stroke="black" points="457.5,-444 371,-444 371,-402 457.5,-402 457.5,-444"/>
<text xml:space="preserve" text-anchor="start" x="399.25" y="-431.5" font-family="Calibri" font-size="10.00">Layer 3</text>
<text xml:space="preserve" text-anchor="start" x="382.75" y="-423.4" font-family="Calibri" font-size="8.00">GATv2Conv 4 heads</text>
<text xml:space="preserve" text-anchor="start" x="379" y="-415.4" font-family="Calibri" font-size="8.00">Residual + LayerNorm</text>
<text xml:space="preserve" text-anchor="start" x="390.25" y="-407.4" font-family="Calibri" font-size="8.00">ELU + Dropout</text>
</g>
<!-- layer2&#45;&gt;layer3 -->
<g id="edge6" class="edge">
<title>layer2&#45;&gt;layer3</title>
<path fill="none" stroke="black" d="M414.25,-488.94C414.25,-488.94 414.25,-455.98 414.25,-455.98"/>
<polygon fill="black" stroke="black" points="417.75,-455.98 414.25,-445.98 410.75,-455.98 417.75,-455.98"/>
</g>
<!-- node_score -->
<g id="node10" class="node">
<title>node_score</title>
<polygon fill="#fef7e0" stroke="black" points="341.75,-335 250.75,-335 250.75,-293 341.75,-293 341.75,-335"/>
<text xml:space="preserve" text-anchor="start" x="261" y="-322.5" font-family="Calibri" font-size="10.00">Node Score Head</text>
<text xml:space="preserve" text-anchor="start" x="271.5" y="-314.4" font-family="Calibri" font-size="8.00">Linear 128 to 64</text>
<text xml:space="preserve" text-anchor="start" x="272.25" y="-306.4" font-family="Calibri" font-size="8.00">ELU + Dropout</text>
<text xml:space="preserve" text-anchor="start" x="258.75" y="-298.4" font-family="Calibri" font-size="8.00">Linear 64 to 1 + Sigmoid</text>
</g>
<!-- layer3&#45;&gt;node_score -->
<g id="edge7" class="edge">
<title>layer3&#45;&gt;node_score</title>
<path fill="none" stroke="black" d="M375.75,-401.72C375.75,-370 375.75,-314 375.75,-314 375.75,-314 353.55,-314 353.55,-314"/>
<polygon fill="black" stroke="black" points="353.55,-310.5 343.55,-314 353.55,-317.5 353.55,-310.5"/>
</g>
<!-- edge_score -->
<g id="node11" class="node">
<title>edge_score</title>
<polygon fill="#fef7e0" stroke="black" points="214.75,-335 123.75,-335 123.75,-293 214.75,-293 214.75,-335"/>
<text xml:space="preserve" text-anchor="start" x="135.5" y="-322.5" font-family="Calibri" font-size="10.00">Edge Score Head</text>
<text xml:space="preserve" text-anchor="start" x="144.5" y="-314.4" font-family="Calibri" font-size="8.00">Linear 128 to 64</text>
<text xml:space="preserve" text-anchor="start" x="145.25" y="-306.4" font-family="Calibri" font-size="8.00">ELU + Dropout</text>
<text xml:space="preserve" text-anchor="start" x="131.75" y="-298.4" font-family="Calibri" font-size="8.00">Linear 64 to 1 + Sigmoid</text>
</g>
<!-- layer3&#45;&gt;edge_score -->
<g id="edge8" class="edge">
<title>layer3&#45;&gt;edge_score</title>
<path fill="none" stroke="black" d="M370.73,-423C300.33,-423 169.25,-423 169.25,-423 169.25,-423 169.25,-346.79 169.25,-346.79"/>
<polygon fill="black" stroke="black" points="172.75,-346.79 169.25,-336.79 165.75,-346.79 172.75,-346.79"/>
</g>
<!-- attention_pool -->
<g id="node12" class="node">
<title>attention_pool</title>
<polygon fill="#f3e8fd" stroke="black" points="594.25,-332 482.25,-332 482.25,-296 594.25,-296 594.25,-332"/>
<text xml:space="preserve" text-anchor="start" x="503.38" y="-318.5" font-family="Calibri" font-size="10.00">Attention Pooling</text>
<text xml:space="preserve" text-anchor="start" x="490.25" y="-310.4" font-family="Calibri" font-size="8.00">Gate(128 to 64 to 1) + Softmax</text>
<text xml:space="preserve" text-anchor="start" x="514.62" y="-302.4" font-family="Calibri" font-size="8.00">Weighted Sum</text>
</g>
<!-- layer3&#45;&gt;attention_pool -->
<g id="edge9" class="edge">
<title>layer3&#45;&gt;attention_pool</title>
<path fill="none" stroke="black" d="M457.87,-416C476.86,-416 494.88,-416 494.88,-416 494.88,-416 494.88,-343.75 494.88,-343.75"/>
<polygon fill="black" stroke="black" points="498.38,-343.75 494.88,-333.75 491.38,-343.75 498.38,-343.75"/>
</g>
<!-- isolation -->
<g id="node16" class="node">
<title>isolation</title>
<polygon fill="#f3e8fd" stroke="black" points="366.75,-226 251.75,-226 251.75,-184 366.75,-184 366.75,-226"/>
<text xml:space="preserve" text-anchor="start" x="280.75" y="-213.5" font-family="Calibri" font-size="10.00">Isolation Head</text>
<text xml:space="preserve" text-anchor="start" x="259.75" y="-205.4" font-family="Calibri" font-size="8.00">Concat[embed(128) + score(1)]</text>
<text xml:space="preserve" text-anchor="start" x="277.75" y="-197.4" font-family="Calibri" font-size="8.00">Linear 129 to 32 to 1</text>
<text xml:space="preserve" text-anchor="start" x="267.62" y="-189.4" font-family="Calibri" font-size="8.00">Per&#45;node fault localization</text>
</g>
<!-- layer3&#45;&gt;isolation -->
<g id="edge13" class="edge">
<title>layer3&#45;&gt;isolation</title>
<path fill="none" stroke="black" stroke-dasharray="5,2" d="M380.5,-401.81C380.5,-348.68 380.5,-214 380.5,-214 380.5,-214 378.61,-214 378.61,-214"/>
<polygon fill="black" stroke="black" points="378.61,-210.5 368.61,-214 378.61,-217.5 378.61,-210.5"/>
<text xml:space="preserve" text-anchor="middle" x="430.38" y="-311.27" font-family="Times New Roman,serif" font-size="8.00">node_emb</text>
</g>
<!-- layer3&#45;&gt;physics_loss -->
<g id="edge15" class="edge">
<title>layer3&#45;&gt;physics_loss</title>
<path fill="none" stroke="black" stroke-dasharray="1,5" d="M457.81,-430C523.81,-430 641.56,-430 641.56,-430 641.56,-430 641.56,-346.79 641.56,-346.79"/>
<polygon fill="black" stroke="black" points="645.06,-346.79 641.56,-336.79 638.06,-346.79 645.06,-346.79"/>
<text xml:space="preserve" text-anchor="middle" x="621.38" y="-372.4" font-family="Times New Roman,serif" font-size="8.00">scores</text>
</g>
<!-- node_score&#45;&gt;isolation -->
<g id="edge14" class="edge">
<title>node_score&#45;&gt;isolation</title>
<path fill="none" stroke="black" stroke-dasharray="5,2" d="M296.75,-292.72C296.75,-292.72 296.75,-237.73 296.75,-237.73"/>
<polygon fill="black" stroke="black" points="300.25,-237.73 296.75,-227.73 293.25,-237.73 300.25,-237.73"/>
<text xml:space="preserve" text-anchor="middle" x="320.25" y="-263.4" font-family="Times New Roman,serif" font-size="8.00">node_score</text>
</g>
<!-- out_scores -->
<g id="node18" class="node">
<title>out_scores</title>
<polygon fill="#e8f0fe" stroke="black" points="215.88,-226 122.62,-226 122.62,-184 215.88,-184 215.88,-226"/>
<text xml:space="preserve" text-anchor="start" x="137" y="-213.5" font-family="Calibri" font-size="10.00">Anomaly Scores</text>
<text xml:space="preserve" text-anchor="start" x="132.12" y="-205.4" font-family="Calibri" font-size="8.00">per&#45;node and per&#45;edge</text>
<text xml:space="preserve" text-anchor="start" x="135.5" y="-197.4" font-family="Calibri" font-size="8.00">Physics&#45;calibrated via</text>
<text xml:space="preserve" text-anchor="start" x="130.62" y="-189.4" font-family="Calibri" font-size="8.00">calibrate_with_physics()</text>
</g>
<!-- node_score&#45;&gt;out_scores -->
<g id="edge17" class="edge">
<title>node_score&#45;&gt;out_scores</title>
<path fill="none" stroke="black" d="M250.54,-314C241.25,-314 234.25,-314 234.25,-314 234.25,-314 234.25,-205 234.25,-205 234.25,-205 227.66,-205 227.66,-205"/>
<polygon fill="black" stroke="black" points="227.66,-201.5 217.66,-205 227.66,-208.5 227.66,-201.5"/>
</g>
<!-- edge_score&#45;&gt;out_scores -->
<g id="edge18" class="edge">
<title>edge_score&#45;&gt;out_scores</title>
<path fill="none" stroke="black" stroke-dasharray="5,2" d="M169.25,-292.72C169.25,-292.72 169.25,-237.73 169.25,-237.73"/>
<polygon fill="black" stroke="black" points="172.75,-237.73 169.25,-227.73 165.75,-237.73 172.75,-237.73"/>
</g>
<!-- graph_proj -->
<g id="node13" class="node">
<title>graph_proj</title>
<polygon fill="#f3e8fd" stroke="black" points="594,-223 510.5,-223 510.5,-187 594,-187 594,-223"/>
<text xml:space="preserve" text-anchor="start" x="518.5" y="-205.5" font-family="Calibri" font-size="10.00">Graph Projection</text>
<text xml:space="preserve" text-anchor="start" x="527.5" y="-197.4" font-family="Calibri" font-size="8.00">Linear 128 to 64</text>
</g>
<!-- attention_pool&#45;&gt;graph_proj -->
<g id="edge10" class="edge">
<title>attention_pool&#45;&gt;graph_proj</title>
<path fill="none" stroke="black" d="M552.25,-295.51C552.25,-295.51 552.25,-234.73 552.25,-234.73"/>
<polygon fill="black" stroke="black" points="555.75,-234.73 552.25,-224.73 548.75,-234.73 555.75,-234.73"/>
</g>
<!-- fault_type -->
<g id="node14" class="node">
<title>fault_type</title>
<polygon fill="#f3e8fd" stroke="black" points="494.5,-139 390,-139 390,-97 494.5,-97 494.5,-139"/>
<text xml:space="preserve" text-anchor="start" x="410" y="-126.5" font-family="Calibri" font-size="10.00">Fault Type Head</text>
<text xml:space="preserve" text-anchor="start" x="404" y="-118.4" font-family="Calibri" font-size="8.00">Linear 64 to 32 to 16 to 6</text>
<text xml:space="preserve" text-anchor="start" x="398" y="-110.4" font-family="Calibri" font-size="8.00">6 classes (Normal, SLG, LLG,</text>
<text xml:space="preserve" text-anchor="start" x="400.62" y="-102.4" font-family="Calibri" font-size="8.00">LL, 3&#45;Phase, Open Circuit)</text>
</g>
<!-- graph_proj&#45;&gt;fault_type -->
<g id="edge11" class="edge">
<title>graph_proj&#45;&gt;fault_type</title>
<path fill="none" stroke="black" d="M510,-196C498.12,-196 488.38,-196 488.38,-196 488.38,-196 488.38,-150.83 488.38,-150.83"/>
<polygon fill="black" stroke="black" points="491.88,-150.83 488.38,-140.83 484.88,-150.83 491.88,-150.83"/>
</g>
<!-- severity -->
<g id="node15" class="node">
<title>severity</title>
<polygon fill="#f3e8fd" stroke="black" points="354.38,-136 246.12,-136 246.12,-100 354.38,-100 354.38,-136"/>
<text xml:space="preserve" text-anchor="start" x="272.12" y="-122.5" font-family="Calibri" font-size="10.00">Severity Head</text>
<text xml:space="preserve" text-anchor="start" x="254.12" y="-114.4" font-family="Calibri" font-size="8.00">Linear 64 to 16 to 1 + Sigmoid</text>
<text xml:space="preserve" text-anchor="start" x="267.62" y="-106.4" font-family="Calibri" font-size="8.00">[0, 1] criticality score</text>
</g>
<!-- graph_proj&#45;&gt;severity -->
<g id="edge12" class="edge">
<title>graph_proj&#45;&gt;severity</title>
<path fill="none" stroke="black" d="M510.11,-205C460.64,-205 385.25,-205 385.25,-205 385.25,-205 385.25,-118 385.25,-118 385.25,-118 366.08,-118 366.08,-118"/>
<polygon fill="black" stroke="black" points="366.08,-114.5 356.08,-118 366.08,-121.5 366.08,-114.5"/>
</g>
<!-- out_fault -->
<g id="node19" class="node">
<title>out_fault</title>
<polygon fill="#e8f0fe" stroke="black" points="222.38,-52 114.12,-52 114.12,-16 222.38,-16 222.38,-52"/>
<text xml:space="preserve" text-anchor="start" x="136.75" y="-38.5" font-family="Calibri" font-size="10.00">Fault Prediction</text>
<text xml:space="preserve" text-anchor="start" x="125.88" y="-30.4" font-family="Calibri" font-size="8.00">type, confidence, severity</text>
<text xml:space="preserve" text-anchor="start" x="122.12" y="-22.4" font-family="Calibri" font-size="8.00">isolation nodes, explanation</text>
</g>
<!-- fault_type&#45;&gt;out_fault -->
<g id="edge19" class="edge">
<title>fault_type&#45;&gt;out_fault</title>
<path fill="none" stroke="black" d="M442.25,-96.67C442.25,-70.06 442.25,-28 442.25,-28 442.25,-28 234.22,-28 234.22,-28"/>
<polygon fill="black" stroke="black" points="234.22,-24.5 224.22,-28 234.22,-31.5 234.22,-24.5"/>
</g>
<!-- severity&#45;&gt;out_fault -->
<g id="edge20" class="edge">
<title>severity&#45;&gt;out_fault</title>
<path fill="none" stroke="black" d="M245.83,-118C209.84,-118 169.25,-118 169.25,-118 169.25,-118 169.25,-63.74 169.25,-63.74"/>
<polygon fill="black" stroke="black" points="172.75,-63.74 169.25,-53.74 165.75,-63.74 172.75,-63.74"/>
</g>
<!-- isolation&#45;&gt;out_fault -->
<g id="edge21" class="edge">
<title>isolation&#45;&gt;out_fault</title>
<path fill="none" stroke="black" d="M360.56,-183.77C360.56,-139.2 360.56,-40 360.56,-40 360.56,-40 234.36,-40 234.36,-40"/>
<polygon fill="black" stroke="black" points="234.36,-36.5 224.36,-40 234.36,-43.5 234.36,-36.5"/>
</g>
<!-- params -->
<g id="node20" class="node">
<title>params</title>
<polygon fill="lightgrey" stroke="none" points="942.62,-917.75 815.88,-917.75 815.88,-794.75 942.62,-794.75 942.62,-917.75"/>
<text xml:space="preserve" text-anchor="start" x="845.12" y="-901.2" font-family="Calibri" font-weight="bold" font-size="9.00" fill="#7f7f7f">Model Parameters</text>
<text xml:space="preserve" text-anchor="start" x="833.75" y="-884.2" font-family="Calibri" font-size="9.00" fill="#7f7f7f">Total params:</text>
<text xml:space="preserve" text-anchor="start" x="898.12" y="-884.2" font-family="Calibri" font-size="9.00" fill="#7f7f7f">186,307</text>
<text xml:space="preserve" text-anchor="start" x="836.75" y="-868.2" font-family="Calibri" font-size="9.00" fill="#7f7f7f">Hidden dim:</text>
<text xml:space="preserve" text-anchor="start" x="906" y="-868.2" font-family="Calibri" font-size="9.00" fill="#7f7f7f">128</text>
<text xml:space="preserve" text-anchor="start" x="828.88" y="-852.2" font-family="Calibri" font-size="9.00" fill="#7f7f7f">Attention heads:</text>
<text xml:space="preserve" text-anchor="start" x="910.5" y="-852.2" font-family="Calibri" font-size="9.00" fill="#7f7f7f">4</text>
<text xml:space="preserve" text-anchor="start" x="836.75" y="-836.2" font-family="Calibri" font-size="9.00" fill="#7f7f7f">GNN layers:</text>
<text xml:space="preserve" text-anchor="start" x="910.5" y="-836.2" font-family="Calibri" font-size="9.00" fill="#7f7f7f">3</text>
<text xml:space="preserve" text-anchor="start" x="844.25" y="-820.2" font-family="Calibri" font-size="9.00" fill="#7f7f7f">Pooling:</text>
<text xml:space="preserve" text-anchor="start" x="895.88" y="-820.2" font-family="Calibri" font-size="9.00" fill="#7f7f7f">Attention</text>
<text xml:space="preserve" text-anchor="start" x="837.88" y="-804.2" font-family="Calibri" font-size="9.00" fill="#7f7f7f">Fault types:</text>
<text xml:space="preserve" text-anchor="start" x="910.5" y="-804.2" font-family="Calibri" font-size="9.00" fill="#7f7f7f">6</text>
</g>
</g>
</svg>
