<?xml version="1.0" encoding="UTF-8" standalone="no"?>
<!DOCTYPE svg PUBLIC "-//W3C//DTD SVG 1.1//EN"
 "http://www.w3.org/Graphics/SVG/1.1/DTD/svg11.dtd">
<!-- Generated by graphviz version 13.0.1 (20250615.1724)
 -->
<!-- Title: pipeline Pages: 1 -->
<svg width="5641pt" height="848pt"
 viewBox="0.00 0.00 5641.00 848.00" xmlns="http://www.w3.org/2000/svg" xmlns:xlink="http://www.w3.org/1999/xlink">
<g id="graph0" class="graph" transform="scale(4.16667 4.16667) rotate(0) translate(36 167.5)">
<title>pipeline</title>
<polygon fill="white" stroke="none" points="-36,36 -36,-167.5 1317.75,-167.5 1317.75,36 -36,36"/>
<!-- ingest -->
<g id="node1" class="node">
<title>ingest</title>
<path fill="#dbeafe" stroke="black" d="M103,-72.56C103,-75.39 86.98,-77.69 67.25,-77.69 47.52,-77.69 31.5,-75.39 31.5,-72.56 31.5,-72.56 31.5,-26.44 31.5,-26.44 31.5,-23.61 47.52,-21.31 67.25,-21.31 86.98,-21.31 103,-23.61 103,-26.44 103,-26.44 103,-72.56 103,-72.56"/>
<path fill="none" stroke="black" d="M103,-72.56C103,-69.73 86.98,-67.44 67.25,-67.44 47.52,-67.44 31.5,-69.73 31.5,-72.56"/>
<text xml:space="preserve" text-anchor="middle" x="67.25" y="-52.7" font-family="Times New Roman,serif" font-size="14.00">Telemetry</text>
<text xml:space="preserve" text-anchor="middle" x="67.25" y="-36.2" font-family="Times New Roman,serif" font-size="14.00">Ingestion</text>
</g>
<!-- pf -->
<g id="node2" class="node">
<title>pf</title>
<polygon fill="#e0e7ff" stroke="black" points="389.75,-70 267.5,-70 263.5,-66 263.5,-29 385.75,-29 389.75,-33 389.75,-70"/>
<polyline fill="none" stroke="black" points="385.75,-66 263.5,-66"/>
<polyline fill="none" stroke="black" points="385.75,-66 385.75,-29"/>
<polyline fill="none" stroke="black" points="385.75,-66 389.75,-70"/>
<text xml:space="preserve" text-anchor="middle" x="326.62" y="-52.7" font-family="Times New Roman,serif" font-size="14.00">AC Powerflow</text>
<text xml:space="preserve" text-anchor="middle" x="326.62" y="-36.2" font-family="Times New Roman,serif" font-size="14.00">(pandapower runpp)</text>
</g>
<!-- ingest&#45;&gt;pf -->
<g id="edge1" class="edge">
<title>ingest&#45;&gt;pf</title>
<path fill="none" stroke="black" d="M103.31,-49.5C103.31,-49.5 251.67,-49.5 251.67,-49.5"/>
<polygon fill="black" stroke="black" points="251.67,-53 261.67,-49.5 251.67,-46 251.67,-53"/>
<text xml:space="preserve" text-anchor="middle" x="199" y="-52.7" font-family="Times New Roman,serif" font-size="14.00">load perturbation</text>
</g>
<!-- state -->
<g id="node3" class="node">
<title>state</title>
<polygon fill="#d1fae5" stroke="black" points="633,-70 521,-70 521,-29 633,-29 633,-70"/>
<text xml:space="preserve" text-anchor="middle" x="577" y="-52.7" font-family="Times New Roman,serif" font-size="14.00">State Update</text>
<text xml:space="preserve" text-anchor="middle" x="577" y="-36.2" font-family="Times New Roman,serif" font-size="14.00">(GridGraphStore)</text>
</g>
<!-- pf&#45;&gt;state -->
<g id="edge2" class="edge">
<title>pf&#45;&gt;state</title>
<path fill="none" stroke="black" d="M390.13,-49.5C390.13,-49.5 509.3,-49.5 509.3,-49.5"/>
<polygon fill="black" stroke="black" points="509.3,-53 519.3,-49.5 509.3,-46 509.3,-53"/>
<text xml:space="preserve" text-anchor="middle" x="455.38" y="-52.7" font-family="Times New Roman,serif" font-size="14.00">res_bus / res_line</text>
</g>
<!-- physics -->
<g id="node4" class="node">
<title>physics</title>
<polygon fill="#fef3c7" stroke="black" points="827.5,-100 741,-100 741,-59 827.5,-59 827.5,-100"/>
<text xml:space="preserve" text-anchor="middle" x="784.25" y="-82.7" font-family="Times New Roman,serif" font-size="14.00">Physics Rule</text>
<text xml:space="preserve" text-anchor="middle" x="784.25" y="-66.2" font-family="Times New Roman,serif" font-size="14.00">Detector</text>
</g>
<!-- state&#45;&gt;physics -->
<g id="edge3" class="edge">
<title>state&#45;&gt;physics</title>
<path fill="none" stroke="black" d="M633.36,-64.5C633.36,-64.5 729.21,-64.5 729.21,-64.5"/>
<polygon fill="black" stroke="black" points="729.21,-68 739.21,-64.5 729.21,-61 729.21,-68"/>
<text xml:space="preserve" text-anchor="middle" x="674.62" y="-77.7" font-family="Times New Roman,serif" font-size="14.00">snapshot</text>
</g>
<!-- ml -->
<g id="node5" class="node">
<title>ml</title>
<polygon fill="#fce7f3" stroke="black" points="852.25,-41 716.25,-41 716.25,0 852.25,0 852.25,-41"/>
<text xml:space="preserve" text-anchor="middle" x="784.25" y="-23.7" font-family="Times New Roman,serif" font-size="14.00">ML Ensemble</text>
<text xml:space="preserve" text-anchor="middle" x="784.25" y="-7.2" font-family="Times New Roman,serif" font-size="14.00">(ZScore/ROC/LSTM)</text>
</g>
<!-- state&#45;&gt;ml -->
<g id="edge4" class="edge">
<title>state&#45;&gt;ml</title>
<path fill="none" stroke="black" d="M633.36,-35C633.36,-35 704.58,-35 704.58,-35"/>
<polygon fill="black" stroke="black" points="704.58,-38.5 714.58,-35 704.58,-31.5 704.58,-38.5"/>
<text xml:space="preserve" text-anchor="middle" x="674.62" y="-32.7" font-family="Times New Roman,serif" font-size="14.00">snapshot</text>
</g>
<!-- explain -->
<g id="node6" class="node">
<title>explain</title>
<polygon fill="#ede9fe" stroke="black" points="1054.25,-70 973,-70 973,-29 1054.25,-29 1054.25,-70"/>
<text xml:space="preserve" text-anchor="middle" x="1013.62" y="-52.7" font-family="Times New Roman,serif" font-size="14.00">Explanation</text>
<text xml:space="preserve" text-anchor="middle" x="1013.62" y="-36.2" font-family="Times New Roman,serif" font-size="14.00">Generator</text>
</g>
<!-- physics&#45;&gt;explain -->
<g id="edge5" class="edge">
<title>physics&#45;&gt;explain</title>
<path fill="none" stroke="black" stroke-dasharray="5,2" d="M827.93,-64.5C827.93,-64.5 961.29,-64.5 961.29,-64.5"/>
<polygon fill="black" stroke="black" points="961.29,-68 971.29,-64.5 961.29,-61 961.29,-68"/>
<text xml:space="preserve" text-anchor="middle" x="912.62" y="-77.7" font-family="Times New Roman,serif" font-size="14.00">violations</text>
</g>
<!-- ml&#45;&gt;explain -->
<g id="edge6" class="edge">
<title>ml&#45;&gt;explain</title>
<path fill="none" stroke="black" d="M852.45,-35C852.45,-35 961.13,-35 961.13,-35"/>
<polygon fill="black" stroke="black" points="961.13,-38.5 971.13,-35 961.13,-31.5 961.13,-38.5"/>
<text xml:space="preserve" text-anchor="middle" x="912.62" y="-32.7" font-family="Times New Roman,serif" font-size="14.00">anomaly scores</text>
</g>
<!-- pub -->
<g id="node7" class="node">
<title>pub</title>
<polygon fill="#e0e7ff" stroke="black" points="1281.75,-70 1195.5,-70 1191.5,-66 1191.5,-29 1277.75,-29 1281.75,-33 1281.75,-70"/>
<polyline fill="none" stroke="black" points="1277.75,-66 1191.5,-66"/>
<polyline fill="none" stroke="black" points="1277.75,-66 1277.75,-29"/>
<polyline fill="none" stroke="black" points="1277.75,-66 1281.75,-70"/>
<text xml:space="preserve" text-anchor="middle" x="1236.62" y="-52.7" font-family="Times New Roman,serif" font-size="14.00">Publish</text>
<text xml:space="preserve" text-anchor="middle" x="1236.62" y="-36.2" font-family="Times New Roman,serif" font-size="14.00">(WS / REST)</text>
</g>
<!-- explain&#45;&gt;pub -->
<g id="edge7" class="edge">
<title>explain&#45;&gt;pub</title>
<path fill="none" stroke="black" d="M1054.53,-49.5C1054.53,-49.5 1179.87,-49.5 1179.87,-49.5"/>
<polygon fill="black" stroke="black" points="1179.87,-53 1189.87,-49.5 1179.87,-46 1179.87,-53"/>
<text xml:space="preserve" text-anchor="middle" x="1122.88" y="-52.7" font-family="Times New Roman,serif" font-size="14.00">ExplanationPacket</text>
</g>
<!-- timing -->
<g id="node8" class="node">
<title>timing</title>
<polygon fill="#f1f5f9" stroke="black" points="128.5,-131.5 0,-131.5 0,-95.5 134.5,-95.5 134.5,-125.5 128.5,-131.5"/>
<polyline fill="none" stroke="black" points="128.5,-131.5 128.5,-125.5"/>
<polyline fill="none" stroke="black" points="134.5,-125.5 128.5,-125.5"/>
<text xml:space="preserve" text-anchor="middle" x="67.25" y="-108.45" font-family="Times New Roman,serif" font-size="14.00">Target: &lt; 100 ms/tick</text>
</g>
</g>
</svg>
